<?xml version="1.0" encoding="UTF-8" standalone="no"?>
<!-- Created with Inkscape (http://www.inkscape.org/) -->

<svg
   width="500"
   height="500"
   viewBox="0 0 500 500"
   version="1.1"
   id="SVGRoot"
   sodipodi:docname="BB-Logo-2.svg"
   inkscape:version="1.2 (dc2aedaf03, 2022-05-15)"
   inkscape:export-filename="BB-Logo-64-White.svg"
   inkscape:export-xdpi="12.288"
   inkscape:export-ydpi="12.288"
   xmlns:inkscape="http://www.inkscape.org/namespaces/inkscape"
   xmlns:sodipodi="http://sodipodi.sourceforge.net/DTD/sodipodi-0.dtd"
   xmlns="http://www.w3.org/2000/svg"
   xmlns:svg="http://www.w3.org/2000/svg">
  <sodipodi:namedview
     id="namedview3923"
     pagecolor="#ffffff"
     bordercolor="#111111"
     borderopacity="1"
     inkscape:showpageshadow="0"
     inkscape:pageopacity="0"
     inkscape:pagecheckerboard="1"
     inkscape:deskcolor="#d1d1d1"
     inkscape:document-units="px"
     showgrid="true"
     inkscape:zoom="1.516"
     inkscape:cx="153.69393"
     inkscape:cy="250.32982"
     inkscape:window-width="1920"
     inkscape:window-height="974"
     inkscape:window-x="-9"
     inkscape:window-y="-9"
     inkscape:window-maximized="1"
     inkscape:current-layer="SVGRoot" />
  <defs
     id="defs3918">
    <inkscape:path-effect
       effect="powermask"
       id="path-effect656"
       is_visible="true"
       lpeversion="1"
       uri="#mask-powermask-path-effect656"
       invert="false"
       hide_mask="false"
       background="true"
       background_color="#ffffffff" />
    <inkscape:path-effect
       effect="fillet_chamfer"
       id="path-effect632"
       is_visible="true"
       lpeversion="1"
       nodesatellites_param="F,0,0,1,0,40,0,1 @ F,0,0,1,0,40,0,1 @ F,0,0,1,0,40,0,1 @ F,0,0,1,0,40,0,1"
       unit="px"
       method="auto"
       mode="F"
       radius="40"
       chamfer_steps="1"
       flexible="false"
       use_knot_distance="true"
       apply_no_radius="true"
       apply_with_radius="true"
       only_selected="false"
       hide_knots="false" />
    <mask
       maskUnits="userSpaceOnUse"
       id="mask-powermask-path-effect656">
      <path
         id="mask-powermask-path-effect656_box"
         style="fill:#ffffff;fill-opacity:1"
         d="M 36.549407,33.91436 H 478.54941 v 442 H 36.549407 Z" />
      <text
         xml:space="preserve"
         style="font-size:382.603px;line-height:1;font-family:'Alegreya SC';-inkscape-font-specification:'Alegreya SC';text-align:center;letter-spacing:-24.7489px;text-anchor:middle;fill:#ffffff;stroke:#000000;stroke-width:0;stroke-linecap:round;stroke-linejoin:bevel;paint-order:markers fill stroke"
         x="269.11148"
         y="360.03473"
         id="text654"
         transform="scale(0.88958079,1.124125)"><tspan
           sodipodi:role="line"
           id="tspan652"
           x="256.73703"
           y="360.03473"
           style="font-style:normal;font-variant:normal;font-weight:normal;font-stretch:ultra-condensed;font-family:'Bowlby One SC';-inkscape-font-specification:'Bowlby One SC Ultra-Condensed';fill:#000000;stroke-width:0">#!</tspan></text>
    </mask>
    <mask
       maskUnits="userSpaceOnUse"
       id="mask-powermask-path-effect1475">
      <path
         id="mask-powermask-path-effect1475_box"
         style="fill:#ffffff;fill-opacity:1"
         d="M 36.549407,33.91436 H 478.54941 v 442 H 36.549407 Z" />
      <path
         id="path1477"
         style="fill:#ffffff;fill-opacity:1"
         d="M 36.549407,33.91436 H 478.54941 v 442 H 36.549407 Z" />
      <text
         xml:space="preserve"
         style="font-size:382.603px;line-height:1;font-family:'Alegreya SC';-inkscape-font-specification:'Alegreya SC';text-align:center;letter-spacing:-24.7489px;text-anchor:middle;fill:#ffffff;stroke:#000000;stroke-width:0;stroke-linecap:round;stroke-linejoin:bevel;paint-order:markers fill stroke"
         x="269.11148"
         y="360.03473"
         id="text1481"
         transform="scale(0.88958079,1.124125)"><tspan
           sodipodi:role="line"
           id="tspan1479"
           x="256.73703"
           y="360.03473"
           style="font-style:normal;font-variant:normal;font-weight:normal;font-stretch:ultra-condensed;font-family:'Bowlby One SC';-inkscape-font-specification:'Bowlby One SC Ultra-Condensed';fill:#000000;stroke-width:0">#!</tspan></text>
    </mask>
  </defs>
  <path
     style="display:none;fill:#ffcc00;stroke:#000000;stroke-width:0;stroke-linecap:round;stroke-linejoin:bevel;paint-order:markers fill stroke"
     id="rect525"
     width="440"
     height="440"
     x="37.549408"
     y="34.91436"
     inkscape:path-effect="#path-effect632;#path-effect656"
     d="M 77.549408,34.91436 H 437.54941 a 40,40 45 0 1 40,40 v 360 a 40,40 135 0 1 -40,40 H 77.549408 a 40,40 45 0 1 -40,-40 v -360 a 40,40 135 0 1 40,-40 z"
     mask="url(#mask-powermask-path-effect656)"
     inkscape:label="Cutout"
     sodipodi:type="rect"
     sodipodi:insensitive="true"
     transform="translate(-7.549408,-4.91436)" />
  <g
     id="g1453"
     inkscape:label="Outline"
     style="display:inline"
     sodipodi:insensitive="true">
    <path
       id="path1403"
       style="font-stretch:ultra-condensed;font-size:382.603px;line-height:1;font-family:'Bowlby One SC';-inkscape-font-specification:'Bowlby One SC Ultra-Condensed';text-align:center;letter-spacing:-24.7489px;text-anchor:middle;display:inline;fill:#000000;stroke:#000000;stroke-width:0;stroke-linecap:round;stroke-linejoin:bevel;paint-order:markers fill stroke"
       d="m 161.51111,82.597955 c -3.98855,0 -6.97838,0.069 -8.97265,0.20898 -1.99427,0 -4.21099,0.14187 -6.64845,0.42188 -2.32664,0.28001 -3.98919,0.69975 -4.98632,1.25976 -0.88635,0.42002 -1.82708,1.18856 -2.82422,2.3086 -0.99713,0.98003 -1.71698,2.17027 -2.16015,3.57031 -0.33239,1.40004 -0.55523,3.22087 -0.66602,5.46094 l -7.81055,70.562505 c -0.1108,0 -1.55049,-0.0709 -4.32031,-0.21094 -2.76982,-0.28001 -5.15221,-0.41992 -7.14648,-0.41992 -12.6304,0 -18.945317,2.52039 -18.945317,7.56054 0,5.60018 -0.11044,13.78999 -0.33203,24.57032 -0.22158,10.64032 -0.33399,18.55031 -0.33399,23.73047 0,1.26004 0.27807,2.38129 0.83204,3.36132 0.55397,0.84003 1.38426,1.53959 2.492176,2.09962 1.218731,0.42001 2.327091,0.83976 3.324231,1.25976 1.10792,0.28001 2.60285,0.49085 4.48632,0.63086 1.99428,0.14 3.54638,0.20899 4.6543,0.20899 h 4.81836 v 30.24219 H 97.694713 c -3.76697,0 -6.646357,0.48872 -8.640637,1.46874 -1.994271,0.98004 -2.992185,3.00976 -2.992185,6.08985 0,5.32016 -0.05524,12.60151 -0.166014,21.84179 -0.110797,9.24029 -0.166013,15.40038 -0.166013,18.48047 0,7.70024 0.995957,12.32128 2.990228,13.86133 2.105068,1.40004 7.755361,2.09961 16.951178,2.09961 h 3.99023 l -7.97852,73.08203 4.98633,9.66015 c 15.95419,0.56002 28.25269,0.83985 36.89453,0.83985 1.99428,0 3.71009,-0.41975 5.1504,-1.25976 1.5511,-0.70003 2.71468,-1.5395 3.49023,-2.51954 0.88635,-0.84002 1.60814,-2.24111 2.16211,-4.20117 0.55396,-2.10005 0.8853,-3.77901 0.99609,-5.03906 0.2216,-1.26004 0.44249,-3.22078 0.66406,-5.88086 0.33239,-2.66008 0.61045,-4.62083 0.83204,-5.88086 l 5.31836,-59.2207 h 6.64648 c 2.88062,0 5.09734,-0.13992 6.64844,-0.41993 -1.21872,10.08031 -2.65842,23.65972 -4.32032,40.74024 -1.5511,17.08052 -2.65945,28.70114 -3.32422,34.86133 0.77556,5.32017 7.97599,7.98046 21.60353,7.98046 2.43744,0 5.20834,-0.0709 8.31054,-0.21093 3.213,-0.14 5.09643,-0.20898 5.65039,-0.20898 4.54251,0 8.25415,-1.19024 11.13476,-3.57031 2.88062,-2.24007 4.81928,-5.39105 5.81641,-9.45117 1.10793,-4.20014 1.82778,-8.11967 2.16016,-11.75978 0.44317,-3.64011 0.66406,-7.97938 0.66406,-13.01953 0,-5.04015 0.0553,-8.40002 0.16602,-10.08007 l 3.65625,-38.22267 c 3.1022,0 7.53563,0.13992 13.29687,0.41993 5.76124,0.28001 10.08227,0.41992 12.96289,0.41992 2.10507,0 3.32192,-1.53904 3.6543,-4.61914 v -55.4414 h -24.59571 c 0.44318,-3.78012 0.99736,-9.31158 1.66211,-16.5918 0.66476,-7.28023 1.21894,-12.80973 1.66212,-16.58984 0.22158,0 0.8862,0.0709 1.99413,0.21093 1.21872,0.14001 2.7156,0.27992 4.48829,0.41993 1.77268,0.14 3.4885,0.20897 5.15038,0.20897 12.40882,0 18.61329,-2.94012 18.61329,-8.82031 v -36.12109 c 0,-9.8003 -1.32925,-14.84109 -3.98828,-15.12109 h -20.27539 l 7.97851,-78.541015 c 0,-1.68006 -0.27806,-2.8703 -0.83203,-3.57032 -0.44317,-0.70002 -0.99735,-1.11976 -1.66211,-1.25976 -0.55396,-0.14001 -1.60515,-0.21094 -3.15625,-0.21094 h -39.88672 c -1.99427,2.52008 -4.15382,9.09991 -6.48046,19.740235 -2.21587,10.50032 -3.71274,21.42137 -4.48829,32.76172 v 31.5 h -16.28515 c 1.21872,-8.82027 2.71364,-22.04892 4.48632,-39.68945 1.77269,-17.64055 3.26761,-30.871145 4.48633,-39.691415 -0.66476,-2.52007 -2.04923,-4.20099 -4.15429,-5.04101 -1.99428,-0.84003 -4.93085,-1.25977 -8.80859,-1.25977 z m 224.60938,0.41992 c -9.74978,0 -22.82334,0.83948 -39.22071,2.51953 h -19.9414 c -18.83481,0 -28.25391,2.38048 -28.25391,7.14063 l 9.47266,167.166015 v 6.50977 c 0.11079,1.54005 0.22319,3.56976 0.33398,6.08984 0.1108,2.52008 0.33168,4.62074 0.66406,6.30079 0.33239,1.54004 0.77612,3.219 1.33008,5.03906 0.55397,1.68005 1.27382,3.08114 2.16016,4.20117 0.99713,1.12003 2.10549,1.95952 3.32421,2.51953 h 14.29102 c 2.99142,0 7.36768,-0.13992 13.1289,-0.41992 5.76123,-0.28001 10.1375,-0.41992 13.12892,-0.41992 1.4403,0 3.6018,0.0709 6.48242,0.21093 2.88062,0.14001 5.04016,0.20899 6.48047,0.20899 2.65903,0 5.04141,-0.069 7.14648,-0.20899 2.10506,-0.28001 4.09894,-0.63077 5.98242,-1.05078 1.99427,-0.56001 3.54637,-1.33051 4.6543,-2.31055 1.10793,-1.12003 1.71733,-2.37925 1.82812,-3.77929 L 401.07752,91.418265 c 0,-5.60017 -4.98567,-8.40039 -14.95703,-8.40039 z m -218.625,133.564465 h 7.31054 c 1.32952,0 3.76713,0.27983 7.3125,0.83984 h 7.97852 c 2.76981,0 4.31996,1.96074 4.65234,5.88086 l -5.98242,46.20117 h -25.92578 c -2.21586,0 -3.32422,-1.96074 -3.32422,-5.88086 0.66476,-4.90015 1.994,-11.97065 3.98828,-21.21093 1.99427,-9.3803 3.32548,-16.17098 3.99024,-20.37111 z M 308.3451,324.94562 c -1.7727,0 -3.21434,4.4102 -4.32227,13.23046 -1.10793,8.68027 -1.66211,18.551 -1.66211,29.61133 l 1.4961,31.91993 c 0.11078,0.42002 0.72019,0.97966 1.82812,1.67969 1.21873,0.70001 1.99379,1.26162 2.32617,1.68163 v 3.35938 h 7.64453 c 4.54251,0.14 9.03117,0.21093 13.4629,0.21093 h 15.7871 c 6.20441,0 11.90992,-0.21084 17.11719,-0.63086 5.20727,-0.27999 10.13771,-0.69973 14.79102,-1.25976 4.76409,-0.56001 8.53096,-1.33052 11.30078,-2.31055 2.88062,-0.98003 4.43271,-2.17027 4.65429,-3.57031 v -66.36132 c 0,-1.54005 -0.55418,-2.73029 -1.66211,-3.57031 -0.99713,-0.84003 -3.3243,-1.53959 -6.98047,-2.09962 -3.54537,-0.70002 -8.75193,-1.1907 -15.62109,-1.47071 -6.86916,-0.28 -16.06542,-0.41991 -27.58789,-0.41991 z"
       sodipodi:insensitive="true" />
    <path
       id="rect1391"
       d="m 70,30 h 360 a 40,40 45 0 1 40,40 v 360 a 40,40 135 0 1 -40,40 H 70 A 40,40 45 0 1 30,430 V 70 A 40,40 135 0 1 70,30 Z"
       style="display:inline;fill:none;stroke:#000000;stroke-width:10;stroke-linecap:round;stroke-linejoin:bevel;stroke-dasharray:none;paint-order:markers fill stroke"
       sodipodi:insensitive="true" />
  </g>
  <g
     id="g212"
     inkscape:label="White"
     style="display:none;stroke:#ffffff;stroke-opacity:1"
     sodipodi:insensitive="true">
    <path
       style="display:inline;fill:#ffffff;fill-opacity:1;fill-rule:nonzero;stroke:#ffffff;stroke-width:0;stroke-linecap:round;stroke-linejoin:round;stroke-opacity:1;paint-order:markers fill stroke"
       d="m 162.87336,81.816097 c -7.62384,0.472498 -15.82252,-0.384145 -22.96983,2.697786 -5.78146,3.890404 -4.68665,11.944862 -5.99594,17.944017 -2.43839,21.06227 -4.62776,42.15116 -7.03177,63.21632 -8.6618,-0.43675 -17.94499,-1.48763 -26.16491,1.87582 -4.335657,1.78493 -4.347105,6.69634 -4.306889,10.63954 -0.09288,15.15278 -0.987657,30.36215 -0.03482,45.48832 1.32121,5.13357 8.004989,5.42349 12.304939,5.82331 3.15725,0.6481 9.28472,-1.8954 7.74036,3.3587 0,8.52882 0,17.05764 0,25.58646 -9.01527,0.5969 -18.344446,-0.42436 -27.174832,1.63493 -4.737718,2.23997 -3.154543,8.68774 -3.733494,12.90075 0.08302,14.5253 -0.841169,29.13236 0.555011,43.60972 0.146819,4.77701 5.036974,6.6403 9.105994,6.78312 4.601686,0.60969 9.253301,0.50719 13.883161,0.51276 -2.89539,24.22216 -5.5801,48.54763 -7.87434,72.79771 2.14732,3.28791 3.20481,7.59229 5.99594,10.27838 12.68397,-0.0966 25.42168,1.13198 38.0782,0.13786 5.9965,-0.20698 10.06623,-5.65151 10.3209,-11.32195 3.40444,-24.06895 4.87261,-48.36262 7.1941,-72.55035 3.67412,0.4447 9.12332,-0.88566 11.69685,0.65963 -2.1025,24.3239 -5.49812,48.5651 -6.76652,72.95227 -0.6772,4.28276 3.01468,6.91997 6.66603,7.90144 9.8695,2.61898 20.31251,1.55191 30.40602,1.26491 7.29722,-0.0218 13.74435,-5.2384 15.6264,-12.23256 5.06863,-15.64613 2.70041,-32.34858 4.83337,-48.42468 0.7366,-8.35974 1.35722,-16.824 2.52048,-25.09707 9.04373,-0.25402 18.17732,1.22539 27.15823,0.39294 3.47852,-2.79727 1.92947,-8.25462 2.56446,-12.14837 0.0612,-16.0499 0.44568,-32.26559 -0.15746,-48.20972 -7.07181,-0.96272 -14.82741,-0.11836 -22.15469,-0.40393 -3.51898,0.75774 -1.23504,-3.91352 -1.53589,-6.01359 0.9854,-8.56521 1.43242,-17.77172 2.98656,-25.95145 9.1396,0.4982 19.55556,1.94836 27.51124,-3.61508 3.26231,-3.2138 1.52892,-8.52077 2.24572,-12.60359 0.0982,-13.08705 0.70226,-26.27963 -0.77186,-39.2998 -0.3314,-3.70291 -3.77034,-5.82008 -7.28814,-5.43938 -5.27353,-0.2507 -10.58019,0.1783 -15.83372,-0.41614 2.27344,-25.92614 5.74725,-51.88591 7.35257,-77.908556 0.26098,-3.182631 -2.48806,-5.976883 -5.79239,-4.873794 -13.34807,0 -26.69614,0 -40.04421,0 -3.92663,5.096415 -4.80251,12.22676 -6.55798,18.43785 -5.18771,21.3669 -5.37648,43.47695 -5.15819,65.33524 -4.85705,0 -9.7141,0 -14.57114,0 2.66549,-26.1986 5.86905,-52.41353 8.51335,-78.613284 -1.29472,-6.05627 -8.5414,-7.003879 -13.69969,-7.009213 -3.21168,-0.132302 -6.4275,-0.1204 -9.64118,-0.09728 z m 10.0452,135.451023 c 6.65056,0.94897 13.71239,-0.10756 19.95511,2.13478 2.29971,3.58216 -0.0636,8.40317 0.0599,12.45249 -1.44317,12.43099 -3.15119,24.84155 -4.74557,37.26459 -8.65815,-0.35387 -17.48236,0.71011 -26.05025,-0.62742 -3.51372,-2.16406 -0.87496,-7.28161 -0.91054,-10.48068 1.92579,-13.69575 6.24862,-27.19208 6.65911,-41.0929 1.67742,0.11638 3.35484,0.23276 5.03227,0.34914 z"
       id="path1148"
       sodipodi:insensitive="true" />
    <path
       style="display:inline;fill:#ffffff;fill-opacity:1;fill-rule:nonzero;stroke:#ffffff;stroke-width:0;stroke-linecap:round;stroke-linejoin:round;stroke-opacity:1;paint-order:markers fill stroke"
       d="m 382.6244,82.554316 c -19.39116,0.352134 -38.58705,3.033451 -57.9894,2.574762 -8.1953,0.562342 -17.25324,-0.345839 -24.58295,3.964857 -3.17938,2.656464 -0.70315,7.509479 -1.2935,11.011455 2.71393,58.25703 6.56086,116.50507 9.37397,174.72481 0.93459,5.29489 1.34189,12.1045 6.26134,15.30162 11.87136,1.37424 23.93839,0.27859 35.88015,0.48954 10.73321,-0.39388 21.62691,0.24578 32.26397,-1.15474 3.53996,-0.9123 7.38133,-3.3426 6.77162,-7.55441 4.55535,-58.21761 7.71422,-116.53846 11.33056,-174.82141 -0.23641,-6.6268 2.2402,-13.80145 -0.5072,-20.116185 -3.66979,-5.397408 -11.95119,-4.085057 -17.50856,-4.420299 z"
       id="path1152"
       sodipodi:insensitive="true" />
    <path
       style="display:inline;fill:#ffffff;fill-opacity:1;fill-rule:nonzero;stroke:#ffffff;stroke-width:0;stroke-linecap:round;stroke-linejoin:round;stroke-opacity:1;paint-order:markers fill stroke"
       d="m 306.64578,325.04844 c -4.44239,10.89541 -3.82283,23.01637 -4.4818,34.562 -0.16095,13.67941 -0.10063,27.58507 1.40869,41.08124 1.93044,1.10699 4.43546,2.52641 3.47507,5.31096 2.52178,2.37003 7.47359,0.31192 10.89421,0.99975 22.11869,-0.30039 44.48009,0.90952 66.37662,-2.84337 3.61014,-0.86969 9.56721,-2.08062 8.79026,-7.0899 0.58725,-22.1457 0.0132,-44.30645 0.0413,-66.45762 -4.5957,-5.74141 -13.04004,-4.67862 -19.64334,-5.35177 -21.96661,-0.69221 -43.94917,-0.56277 -65.92312,-0.84 l -0.54792,0.36729 z"
       id="path1156"
       sodipodi:insensitive="true" />
    <path
       style="display:inline;fill:#ffffff;fill-opacity:1;fill-rule:nonzero;stroke:#ffffff;stroke-width:0;stroke-linecap:round;stroke-linejoin:round;stroke-opacity:1;paint-order:markers fill stroke"
       d="M 62.023314,24.774798 C 49.524425,27.87293 37.788783,35.206705 31.193313,46.489786 c -4.444468,7.663738 -7.652173,16.445891 -6.797287,25.40995 0.02577,121.463904 -0.05153,242.934924 0.03865,364.394384 2.997301,14.06486 11.45533,27.34289 24.491363,33.98901 6.843055,3.87072 14.703053,5.2274 22.496939,4.7946 100.310442,0.70831 200.626022,0.15286 300.938472,0.2374 22.09608,-0.0507 44.20453,0.0464 66.2929,-0.0964 12.96946,-3.48108 24.97056,-11.62079 31.29123,-23.69001 3.88885,-7.39564 6.54877,-15.652 5.65839,-24.08812 -0.0258,-121.24402 0.0515,-242.49517 -0.0387,-363.734743 C 473.28952,53.4634 468.5735,43.595735 460.55537,36.615602 454.24689,30.265981 445.60995,26.449587 437.00528,24.725841 312.01257,24.758479 187.00965,24.660565 62.023314,24.774798 Z M 250,35.960175 c 62.27583,0 124.55166,0 186.82749,0 12.67924,3.388909 24.16683,13.214301 26.45479,26.508905 1.11648,36.288394 0.51514,72.70771 0.7368,109.04647 -0.10314,85.81297 0.34649,171.62992 -0.39925,257.44018 0.37344,7.10881 -0.87235,14.40482 -5.18429,20.26818 -5.26621,7.79135 -14.24609,13.54728 -23.58823,14.81713 -118.96123,-0.0622 -237.9243,0.45682 -356.884366,-0.12119 -8.477932,-0.18443 -17.52048,0.73267 -24.996157,-4.16424 C 42.67984,454.03641 35.365563,442.46086 36.396922,430.52235 35.610221,350.1702 36.107914,269.80986 35.968704,189.45441 c 0.20569,-41.99431 -0.375632,-84.05595 0.66012,-126.008768 1.65271,-13.060213 12.712904,-23.43382 25.059995,-26.943059 7.779469,-1.259023 15.971857,-0.185956 23.911135,-0.542408 54.800016,0 109.600036,0 164.400046,0 z"
       id="path1160"
       sodipodi:insensitive="true" />
  </g>
  <g
     id="g1509"
     inkscape:label="Full"
     sodipodi:insensitive="true"
     style="display:inline">
    <path
       id="path1467"
       transform="translate(-7.549408,-4.91436)"
       mask="url(#mask-powermask-path-effect1475)"
       d="M 77.549408,34.91436 H 437.54941 a 40,40 45 0 1 40,40 v 360 a 40,40 135 0 1 -40,40 H 77.549408 a 40,40 45 0 1 -40,-40 v -360 a 40,40 135 0 1 40,-40 z"
       style="display:inline;fill:#ffcc00;stroke:#000000;stroke-width:0;stroke-linecap:round;stroke-linejoin:round;stroke-dasharray:none;paint-order:markers fill stroke"
       sodipodi:insensitive="true" />
    <path
       id="path1459"
       style="font-stretch:ultra-condensed;font-size:382.603px;line-height:1;font-family:'Bowlby One SC';-inkscape-font-specification:'Bowlby One SC Ultra-Condensed';text-align:center;letter-spacing:-24.7489px;text-anchor:middle;display:inline;fill:#000000;stroke:#000000;stroke-width:0;stroke-linecap:round;stroke-linejoin:bevel;paint-order:markers fill stroke"
       d="m 161.51111,82.597955 c -3.98855,0 -6.97838,0.069 -8.97265,0.20898 -1.99427,0 -4.21099,0.14187 -6.64845,0.42188 -2.32664,0.28001 -3.98919,0.69975 -4.98632,1.25976 -0.88635,0.42002 -1.82708,1.18856 -2.82422,2.3086 -0.99713,0.98003 -1.71698,2.17027 -2.16015,3.57031 -0.33239,1.40004 -0.55523,3.22087 -0.66602,5.46094 l -7.81055,70.562505 c -0.1108,0 -1.55049,-0.0709 -4.32031,-0.21094 -2.76982,-0.28001 -5.15221,-0.41992 -7.14648,-0.41992 -12.6304,0 -18.945317,2.52039 -18.945317,7.56054 0,5.60018 -0.11044,13.78999 -0.33203,24.57032 -0.22158,10.64032 -0.33399,18.55031 -0.33399,23.73047 0,1.26004 0.27807,2.38129 0.83204,3.36132 0.55397,0.84003 1.38426,1.53959 2.492176,2.09962 1.218731,0.42001 2.327091,0.83976 3.324231,1.25976 1.10792,0.28001 2.60285,0.49085 4.48632,0.63086 1.99428,0.14 3.54638,0.20899 4.6543,0.20899 h 4.81836 v 30.24219 H 97.694713 c -3.76697,0 -6.646357,0.48872 -8.640637,1.46874 -1.994271,0.98004 -2.992185,3.00976 -2.992185,6.08985 0,5.32016 -0.05524,12.60151 -0.166014,21.84179 -0.110797,9.24029 -0.166013,15.40038 -0.166013,18.48047 0,7.70024 0.995957,12.32128 2.990228,13.86133 2.105068,1.40004 7.755361,2.09961 16.951178,2.09961 h 3.99023 l -7.97852,73.08203 4.98633,9.66015 c 15.95419,0.56002 28.25269,0.83985 36.89453,0.83985 1.99428,0 3.71009,-0.41975 5.1504,-1.25976 1.5511,-0.70003 2.71468,-1.5395 3.49023,-2.51954 0.88635,-0.84002 1.60814,-2.24111 2.16211,-4.20117 0.55396,-2.10005 0.8853,-3.77901 0.99609,-5.03906 0.2216,-1.26004 0.44249,-3.22078 0.66406,-5.88086 0.33239,-2.66008 0.61045,-4.62083 0.83204,-5.88086 l 5.31836,-59.2207 h 6.64648 c 2.88062,0 5.09734,-0.13992 6.64844,-0.41993 -1.21872,10.08031 -2.65842,23.65972 -4.32032,40.74024 -1.5511,17.08052 -2.65945,28.70114 -3.32422,34.86133 0.77556,5.32017 7.97599,7.98046 21.60353,7.98046 2.43744,0 5.20834,-0.0709 8.31054,-0.21093 3.213,-0.14 5.09643,-0.20898 5.65039,-0.20898 4.54251,0 8.25415,-1.19024 11.13476,-3.57031 2.88062,-2.24007 4.81928,-5.39105 5.81641,-9.45117 1.10793,-4.20014 1.82778,-8.11967 2.16016,-11.75978 0.44317,-3.64011 0.66406,-7.97938 0.66406,-13.01953 0,-5.04015 0.0553,-8.40002 0.16602,-10.08007 l 3.65625,-38.22267 c 3.1022,0 7.53563,0.13992 13.29687,0.41993 5.76124,0.28001 10.08227,0.41992 12.96289,0.41992 2.10507,0 3.32192,-1.53904 3.6543,-4.61914 v -55.4414 h -24.59571 c 0.44318,-3.78012 0.99736,-9.31158 1.66211,-16.5918 0.66476,-7.28023 1.21894,-12.80973 1.66212,-16.58984 0.22158,0 0.8862,0.0709 1.99413,0.21093 1.21872,0.14001 2.7156,0.27992 4.48829,0.41993 1.77268,0.14 3.4885,0.20897 5.15038,0.20897 12.40882,0 18.61329,-2.94012 18.61329,-8.82031 v -36.12109 c 0,-9.8003 -1.32925,-14.84109 -3.98828,-15.12109 h -20.27539 l 7.97851,-78.541015 c 0,-1.68006 -0.27806,-2.8703 -0.83203,-3.57032 -0.44317,-0.70002 -0.99735,-1.11976 -1.66211,-1.25976 -0.55396,-0.14001 -1.60515,-0.21094 -3.15625,-0.21094 h -39.88672 c -1.99427,2.52008 -4.15382,9.09991 -6.48046,19.740235 -2.21587,10.50032 -3.71274,21.42137 -4.48829,32.76172 v 31.5 h -16.28515 c 1.21872,-8.82027 2.71364,-22.04892 4.48632,-39.68945 1.77269,-17.64055 3.26761,-30.871145 4.48633,-39.691415 -0.66476,-2.52007 -2.04923,-4.20099 -4.15429,-5.04101 -1.99428,-0.84003 -4.93085,-1.25977 -8.80859,-1.25977 z m 224.60938,0.41992 c -9.74978,0 -22.82334,0.83948 -39.22071,2.51953 h -19.9414 c -18.83481,0 -28.25391,2.38048 -28.25391,7.14063 l 9.47266,167.166015 v 6.50977 c 0.11079,1.54005 0.22319,3.56976 0.33398,6.08984 0.1108,2.52008 0.33168,4.62074 0.66406,6.30079 0.33239,1.54004 0.77612,3.219 1.33008,5.03906 0.55397,1.68005 1.27382,3.08114 2.16016,4.20117 0.99713,1.12003 2.10549,1.95952 3.32421,2.51953 h 14.29102 c 2.99142,0 7.36768,-0.13992 13.1289,-0.41992 5.76123,-0.28001 10.1375,-0.41992 13.12892,-0.41992 1.4403,0 3.6018,0.0709 6.48242,0.21093 2.88062,0.14001 5.04016,0.20899 6.48047,0.20899 2.65903,0 5.04141,-0.069 7.14648,-0.20899 2.10506,-0.28001 4.09894,-0.63077 5.98242,-1.05078 1.99427,-0.56001 3.54637,-1.33051 4.6543,-2.31055 1.10793,-1.12003 1.71733,-2.37925 1.82812,-3.77929 L 401.07752,91.418265 c 0,-5.60017 -4.98567,-8.40039 -14.95703,-8.40039 z m -218.625,133.564465 h 7.31054 c 1.32952,0 3.76713,0.27983 7.3125,0.83984 h 7.97852 c 2.76981,0 4.31996,1.96074 4.65234,5.88086 l -5.98242,46.20117 h -25.92578 c -2.21586,0 -3.32422,-1.96074 -3.32422,-5.88086 0.66476,-4.90015 1.994,-11.97065 3.98828,-21.21093 1.99427,-9.3803 3.32548,-16.17098 3.99024,-20.37111 z M 308.3451,324.94562 c -1.7727,0 -3.21434,4.4102 -4.32227,13.23046 -1.10793,8.68027 -1.66211,18.551 -1.66211,29.61133 l 1.4961,31.91993 c 0.11078,0.42002 0.72019,0.97966 1.82812,1.67969 1.21873,0.70001 1.99379,1.26162 2.32617,1.68163 v 3.35938 h 7.64453 c 4.54251,0.14 9.03117,0.21093 13.4629,0.21093 h 15.7871 c 6.20441,0 11.90992,-0.21084 17.11719,-0.63086 5.20727,-0.27999 10.13771,-0.69973 14.79102,-1.25976 4.76409,-0.56001 8.53096,-1.33052 11.30078,-2.31055 2.88062,-0.98003 4.43271,-2.17027 4.65429,-3.57031 v -66.36132 c 0,-1.54005 -0.55418,-2.73029 -1.66211,-3.57031 -0.99713,-0.84003 -3.3243,-1.53959 -6.98047,-2.09962 -3.54537,-0.70002 -8.75193,-1.1907 -15.62109,-1.47071 -6.86916,-0.28 -16.06542,-0.41991 -27.58789,-0.41991 z"
       sodipodi:insensitive="true" />
    <path
       id="path1501"
       d="m 70,30 h 360 a 40,40 45 0 1 40,40 v 360 a 40,40 135 0 1 -40,40 H 70 A 40,40 45 0 1 30,430 V 70 A 40,40 135 0 1 70,30 Z"
       style="display:inline;fill:none;stroke:#000000;stroke-width:10;stroke-linecap:round;stroke-linejoin:bevel;stroke-dasharray:none;paint-order:markers fill stroke"
       sodipodi:insensitive="true" />
  </g>
</svg>
