<?xml version="1.0" encoding="UTF-8" standalone="no"?>
<!-- Created with Inkscape (http://www.inkscape.org/) -->

<svg
   width="450"
   height="450"
   viewBox="0 0 450 450"
   version="1.1"
   id="SVGRoot"
   sodipodi:docname="BB-Logo.svg"
   inkscape:version="1.2 (dc2aedaf03, 2022-05-15)"
   inkscape:export-filename="BB-Logo-64-Full.svg"
   inkscape:export-xdpi="13.653334"
   inkscape:export-ydpi="13.653334"
   xmlns:inkscape="http://www.inkscape.org/namespaces/inkscape"
   xmlns:sodipodi="http://sodipodi.sourceforge.net/DTD/sodipodi-0.dtd"
   xmlns="http://www.w3.org/2000/svg"
   xmlns:svg="http://www.w3.org/2000/svg">
  <sodipodi:namedview
     id="namedview3923"
     pagecolor="#ffffff"
     bordercolor="#111111"
     borderopacity="1"
     inkscape:showpageshadow="0"
     inkscape:pageopacity="0"
     inkscape:pagecheckerboard="1"
     inkscape:deskcolor="#d1d1d1"
     inkscape:document-units="px"
     showgrid="true"
     inkscape:zoom="1.516"
     inkscape:cx="250"
     inkscape:cy="250"
     inkscape:window-width="1920"
     inkscape:window-height="974"
     inkscape:window-x="-9"
     inkscape:window-y="-9"
     inkscape:window-maximized="1"
     inkscape:current-layer="SVGRoot" />
  <defs
     id="defs3918">
    <inkscape:path-effect
       effect="powermask"
       id="path-effect656"
       is_visible="true"
       lpeversion="1"
       uri="#mask-powermask-path-effect656"
       invert="false"
       hide_mask="false"
       background="true"
       background_color="#ffffffff" />
    <inkscape:path-effect
       effect="fillet_chamfer"
       id="path-effect632"
       is_visible="true"
       lpeversion="1"
       nodesatellites_param="F,0,0,1,0,40,0,1 @ F,0,0,1,0,40,0,1 @ F,0,0,1,0,40,0,1 @ F,0,0,1,0,40,0,1"
       unit="px"
       method="auto"
       mode="F"
       radius="40"
       chamfer_steps="1"
       flexible="false"
       use_knot_distance="true"
       apply_no_radius="true"
       apply_with_radius="true"
       only_selected="false"
       hide_knots="false" />
    <mask
       maskUnits="userSpaceOnUse"
       id="mask-powermask-path-effect656">
      <path
         id="mask-powermask-path-effect656_box"
         style="fill:#ffffff;fill-opacity:1"
         d="M 36.549407,33.91436 H 478.54941 v 442 H 36.549407 Z" />
      <text
         xml:space="preserve"
         style="font-size:382.603px;line-height:1;font-family:'Alegreya SC';-inkscape-font-specification:'Alegreya SC';text-align:center;letter-spacing:-24.7489px;text-anchor:middle;fill:#ffffff;stroke:#000000;stroke-width:0;stroke-linecap:round;stroke-linejoin:bevel;paint-order:markers fill stroke"
         x="269.11148"
         y="360.03473"
         id="text654"
         transform="scale(0.88958079,1.124125)"><tspan
           sodipodi:role="line"
           id="tspan652"
           x="256.73703"
           y="360.03473"
           style="font-style:normal;font-variant:normal;font-weight:normal;font-stretch:ultra-condensed;font-family:'Bowlby One SC';-inkscape-font-specification:'Bowlby One SC Ultra-Condensed';fill:#000000;stroke-width:0">#!</tspan></text>
    </mask>
    <mask
       maskUnits="userSpaceOnUse"
       id="mask-powermask-path-effect1475">
      <path
         id="mask-powermask-path-effect1475_box"
         style="fill:#ffffff;fill-opacity:1"
         d="M 36.549407,33.91436 H 478.54941 v 442 H 36.549407 Z" />
      <path
         id="path1477"
         style="fill:#ffffff;fill-opacity:1"
         d="M 36.549407,33.91436 H 478.54941 v 442 H 36.549407 Z" />
      <text
         xml:space="preserve"
         style="font-size:382.603px;line-height:1;font-family:'Alegreya SC';-inkscape-font-specification:'Alegreya SC';text-align:center;letter-spacing:-24.7489px;text-anchor:middle;fill:#ffffff;stroke:#000000;stroke-width:0;stroke-linecap:round;stroke-linejoin:bevel;paint-order:markers fill stroke"
         x="269.11148"
         y="360.03473"
         id="text1481"
         transform="scale(0.88958079,1.124125)"><tspan
           sodipodi:role="line"
           id="tspan1479"
           x="256.73703"
           y="360.03473"
           style="font-style:normal;font-variant:normal;font-weight:normal;font-stretch:ultra-condensed;font-family:'Bowlby One SC';-inkscape-font-specification:'Bowlby One SC Ultra-Condensed';fill:#000000;stroke-width:0">#!</tspan></text>
    </mask>
  </defs>
  <path
     style="display:none;fill:#ffcc00;stroke:#000000;stroke-width:0;stroke-linecap:round;stroke-linejoin:bevel;paint-order:markers fill stroke"
     id="rect525"
     width="440"
     height="440"
     x="37.549408"
     y="34.91436"
     inkscape:path-effect="#path-effect632;#path-effect656"
     d="M 77.549408,34.91436 H 437.54941 a 40,40 45 0 1 40,40 v 360 a 40,40 135 0 1 -40,40 H 77.549408 a 40,40 45 0 1 -40,-40 v -360 a 40,40 135 0 1 40,-40 z"
     mask="url(#mask-powermask-path-effect656)"
     inkscape:label="Cutout"
     sodipodi:type="rect"
     sodipodi:insensitive="true"
     transform="translate(-32.549408,-29.91436)" />
  <g
     id="g1453"
     inkscape:label="Outline"
     style="display:inline"
     sodipodi:insensitive="true"
     transform="translate(-25,-25)">
    <path
       id="path1403"
       style="font-stretch:ultra-condensed;font-size:382.603px;line-height:1;font-family:'Bowlby One SC';-inkscape-font-specification:'Bowlby One SC Ultra-Condensed';text-align:center;letter-spacing:-24.7489px;text-anchor:middle;display:inline;fill:#000000;stroke:#000000;stroke-width:0;stroke-linecap:round;stroke-linejoin:bevel;paint-order:markers fill stroke"
       d="m 161.51111,82.597955 c -3.98855,0 -6.97838,0.069 -8.97265,0.20898 -1.99427,0 -4.21099,0.14187 -6.64845,0.42188 -2.32664,0.28001 -3.98919,0.69975 -4.98632,1.25976 -0.88635,0.42002 -1.82708,1.18856 -2.82422,2.3086 -0.99713,0.98003 -1.71698,2.17027 -2.16015,3.57031 -0.33239,1.40004 -0.55523,3.22087 -0.66602,5.46094 l -7.81055,70.562505 c -0.1108,0 -1.55049,-0.0709 -4.32031,-0.21094 -2.76982,-0.28001 -5.15221,-0.41992 -7.14648,-0.41992 -12.6304,0 -18.945317,2.52039 -18.945317,7.56054 0,5.60018 -0.11044,13.78999 -0.33203,24.57032 -0.22158,10.64032 -0.33399,18.55031 -0.33399,23.73047 0,1.26004 0.27807,2.38129 0.83204,3.36132 0.55397,0.84003 1.38426,1.53959 2.492176,2.09962 1.218731,0.42001 2.327091,0.83976 3.324231,1.25976 1.10792,0.28001 2.60285,0.49085 4.48632,0.63086 1.99428,0.14 3.54638,0.20899 4.6543,0.20899 h 4.81836 v 30.24219 H 97.694713 c -3.76697,0 -6.646357,0.48872 -8.640637,1.46874 -1.994271,0.98004 -2.992185,3.00976 -2.992185,6.08985 0,5.32016 -0.05524,12.60151 -0.166014,21.84179 -0.110797,9.24029 -0.166013,15.40038 -0.166013,18.48047 0,7.70024 0.995957,12.32128 2.990228,13.86133 2.105068,1.40004 7.755361,2.09961 16.951178,2.09961 h 3.99023 l -7.97852,73.08203 4.98633,9.66015 c 15.95419,0.56002 28.25269,0.83985 36.89453,0.83985 1.99428,0 3.71009,-0.41975 5.1504,-1.25976 1.5511,-0.70003 2.71468,-1.5395 3.49023,-2.51954 0.88635,-0.84002 1.60814,-2.24111 2.16211,-4.20117 0.55396,-2.10005 0.8853,-3.77901 0.99609,-5.03906 0.2216,-1.26004 0.44249,-3.22078 0.66406,-5.88086 0.33239,-2.66008 0.61045,-4.62083 0.83204,-5.88086 l 5.31836,-59.2207 h 6.64648 c 2.88062,0 5.09734,-0.13992 6.64844,-0.41993 -1.21872,10.08031 -2.65842,23.65972 -4.32032,40.74024 -1.5511,17.08052 -2.65945,28.70114 -3.32422,34.86133 0.77556,5.32017 7.97599,7.98046 21.60353,7.98046 2.43744,0 5.20834,-0.0709 8.31054,-0.21093 3.213,-0.14 5.09643,-0.20898 5.65039,-0.20898 4.54251,0 8.25415,-1.19024 11.13476,-3.57031 2.88062,-2.24007 4.81928,-5.39105 5.81641,-9.45117 1.10793,-4.20014 1.82778,-8.11967 2.16016,-11.75978 0.44317,-3.64011 0.66406,-7.97938 0.66406,-13.01953 0,-5.04015 0.0553,-8.40002 0.16602,-10.08007 l 3.65625,-38.22267 c 3.1022,0 7.53563,0.13992 13.29687,0.41993 5.76124,0.28001 10.08227,0.41992 12.96289,0.41992 2.10507,0 3.32192,-1.53904 3.6543,-4.61914 v -55.4414 h -24.59571 c 0.44318,-3.78012 0.99736,-9.31158 1.66211,-16.5918 0.66476,-7.28023 1.21894,-12.80973 1.66212,-16.58984 0.22158,0 0.8862,0.0709 1.99413,0.21093 1.21872,0.14001 2.7156,0.27992 4.48829,0.41993 1.77268,0.14 3.4885,0.20897 5.15038,0.20897 12.40882,0 18.61329,-2.94012 18.61329,-8.82031 v -36.12109 c 0,-9.8003 -1.32925,-14.84109 -3.98828,-15.12109 h -20.27539 l 7.97851,-78.541015 c 0,-1.68006 -0.27806,-2.8703 -0.83203,-3.57032 -0.44317,-0.70002 -0.99735,-1.11976 -1.66211,-1.25976 -0.55396,-0.14001 -1.60515,-0.21094 -3.15625,-0.21094 h -39.88672 c -1.99427,2.52008 -4.15382,9.09991 -6.48046,19.740235 -2.21587,10.50032 -3.71274,21.42137 -4.48829,32.76172 v 31.5 h -16.28515 c 1.21872,-8.82027 2.71364,-22.04892 4.48632,-39.68945 1.77269,-17.64055 3.26761,-30.871145 4.48633,-39.691415 -0.66476,-2.52007 -2.04923,-4.20099 -4.15429,-5.04101 -1.99428,-0.84003 -4.93085,-1.25977 -8.80859,-1.25977 z m 224.60938,0.41992 c -9.74978,0 -22.82334,0.83948 -39.22071,2.51953 h -19.9414 c -18.83481,0 -28.25391,2.38048 -28.25391,7.14063 l 9.47266,167.166015 v 6.50977 c 0.11079,1.54005 0.22319,3.56976 0.33398,6.08984 0.1108,2.52008 0.33168,4.62074 0.66406,6.30079 0.33239,1.54004 0.77612,3.219 1.33008,5.03906 0.55397,1.68005 1.27382,3.08114 2.16016,4.20117 0.99713,1.12003 2.10549,1.95952 3.32421,2.51953 h 14.29102 c 2.99142,0 7.36768,-0.13992 13.1289,-0.41992 5.76123,-0.28001 10.1375,-0.41992 13.12892,-0.41992 1.4403,0 3.6018,0.0709 6.48242,0.21093 2.88062,0.14001 5.04016,0.20899 6.48047,0.20899 2.65903,0 5.04141,-0.069 7.14648,-0.20899 2.10506,-0.28001 4.09894,-0.63077 5.98242,-1.05078 1.99427,-0.56001 3.54637,-1.33051 4.6543,-2.31055 1.10793,-1.12003 1.71733,-2.37925 1.82812,-3.77929 L 401.07752,91.418265 c 0,-5.60017 -4.98567,-8.40039 -14.95703,-8.40039 z m -218.625,133.564465 h 7.31054 c 1.32952,0 3.76713,0.27983 7.3125,0.83984 h 7.97852 c 2.76981,0 4.31996,1.96074 4.65234,5.88086 l -5.98242,46.20117 h -25.92578 c -2.21586,0 -3.32422,-1.96074 -3.32422,-5.88086 0.66476,-4.90015 1.994,-11.97065 3.98828,-21.21093 1.99427,-9.3803 3.32548,-16.17098 3.99024,-20.37111 z M 308.3451,324.94562 c -1.7727,0 -3.21434,4.4102 -4.32227,13.23046 -1.10793,8.68027 -1.66211,18.551 -1.66211,29.61133 l 1.4961,31.91993 c 0.11078,0.42002 0.72019,0.97966 1.82812,1.67969 1.21873,0.70001 1.99379,1.26162 2.32617,1.68163 v 3.35938 h 7.64453 c 4.54251,0.14 9.03117,0.21093 13.4629,0.21093 h 15.7871 c 6.20441,0 11.90992,-0.21084 17.11719,-0.63086 5.20727,-0.27999 10.13771,-0.69973 14.79102,-1.25976 4.76409,-0.56001 8.53096,-1.33052 11.30078,-2.31055 2.88062,-0.98003 4.43271,-2.17027 4.65429,-3.57031 v -66.36132 c 0,-1.54005 -0.55418,-2.73029 -1.66211,-3.57031 -0.99713,-0.84003 -3.3243,-1.53959 -6.98047,-2.09962 -3.54537,-0.70002 -8.75193,-1.1907 -15.62109,-1.47071 -6.86916,-0.28 -16.06542,-0.41991 -27.58789,-0.41991 z"
       sodipodi:insensitive="true" />
    <path
       id="rect1391"
       d="m 70,30 h 360 a 40,40 45 0 1 40,40 v 360 a 40,40 135 0 1 -40,40 H 70 A 40,40 45 0 1 30,430 V 70 A 40,40 135 0 1 70,30 Z"
       style="display:inline;fill:none;stroke:#000000;stroke-width:10;stroke-linecap:round;stroke-linejoin:bevel;stroke-dasharray:none;paint-order:markers fill stroke"
       sodipodi:insensitive="true" />
  </g>
  <g
     id="g1509"
     inkscape:label="Full"
     sodipodi:insensitive="true"
     style="display:none"
     transform="translate(-25,-25)">
    <path
       id="path1467"
       transform="translate(-7.549408,-4.91436)"
       mask="url(#mask-powermask-path-effect1475)"
       d="M 77.549408,34.91436 H 437.54941 a 40,40 45 0 1 40,40 v 360 a 40,40 135 0 1 -40,40 H 77.549408 a 40,40 45 0 1 -40,-40 v -360 a 40,40 135 0 1 40,-40 z"
       style="display:inline;fill:#ffcc00;stroke:#000000;stroke-width:0;stroke-linecap:round;stroke-linejoin:round;stroke-dasharray:none;paint-order:markers fill stroke"
       sodipodi:insensitive="true" />
    <path
       id="path1459"
       style="font-stretch:ultra-condensed;font-size:382.603px;line-height:1;font-family:'Bowlby One SC';-inkscape-font-specification:'Bowlby One SC Ultra-Condensed';text-align:center;letter-spacing:-24.7489px;text-anchor:middle;display:inline;fill:#000000;stroke:#000000;stroke-width:0;stroke-linecap:round;stroke-linejoin:bevel;paint-order:markers fill stroke"
       d="m 161.51111,82.597955 c -3.98855,0 -6.97838,0.069 -8.97265,0.20898 -1.99427,0 -4.21099,0.14187 -6.64845,0.42188 -2.32664,0.28001 -3.98919,0.69975 -4.98632,1.25976 -0.88635,0.42002 -1.82708,1.18856 -2.82422,2.3086 -0.99713,0.98003 -1.71698,2.17027 -2.16015,3.57031 -0.33239,1.40004 -0.55523,3.22087 -0.66602,5.46094 l -7.81055,70.562505 c -0.1108,0 -1.55049,-0.0709 -4.32031,-0.21094 -2.76982,-0.28001 -5.15221,-0.41992 -7.14648,-0.41992 -12.6304,0 -18.945317,2.52039 -18.945317,7.56054 0,5.60018 -0.11044,13.78999 -0.33203,24.57032 -0.22158,10.64032 -0.33399,18.55031 -0.33399,23.73047 0,1.26004 0.27807,2.38129 0.83204,3.36132 0.55397,0.84003 1.38426,1.53959 2.492176,2.09962 1.218731,0.42001 2.327091,0.83976 3.324231,1.25976 1.10792,0.28001 2.60285,0.49085 4.48632,0.63086 1.99428,0.14 3.54638,0.20899 4.6543,0.20899 h 4.81836 v 30.24219 H 97.694713 c -3.76697,0 -6.646357,0.48872 -8.640637,1.46874 -1.994271,0.98004 -2.992185,3.00976 -2.992185,6.08985 0,5.32016 -0.05524,12.60151 -0.166014,21.84179 -0.110797,9.24029 -0.166013,15.40038 -0.166013,18.48047 0,7.70024 0.995957,12.32128 2.990228,13.86133 2.105068,1.40004 7.755361,2.09961 16.951178,2.09961 h 3.99023 l -7.97852,73.08203 4.98633,9.66015 c 15.95419,0.56002 28.25269,0.83985 36.89453,0.83985 1.99428,0 3.71009,-0.41975 5.1504,-1.25976 1.5511,-0.70003 2.71468,-1.5395 3.49023,-2.51954 0.88635,-0.84002 1.60814,-2.24111 2.16211,-4.20117 0.55396,-2.10005 0.8853,-3.77901 0.99609,-5.03906 0.2216,-1.26004 0.44249,-3.22078 0.66406,-5.88086 0.33239,-2.66008 0.61045,-4.62083 0.83204,-5.88086 l 5.31836,-59.2207 h 6.64648 c 2.88062,0 5.09734,-0.13992 6.64844,-0.41993 -1.21872,10.08031 -2.65842,23.65972 -4.32032,40.74024 -1.5511,17.08052 -2.65945,28.70114 -3.32422,34.86133 0.77556,5.32017 7.97599,7.98046 21.60353,7.98046 2.43744,0 5.20834,-0.0709 8.31054,-0.21093 3.213,-0.14 5.09643,-0.20898 5.65039,-0.20898 4.54251,0 8.25415,-1.19024 11.13476,-3.57031 2.88062,-2.24007 4.81928,-5.39105 5.81641,-9.45117 1.10793,-4.20014 1.82778,-8.11967 2.16016,-11.75978 0.44317,-3.64011 0.66406,-7.97938 0.66406,-13.01953 0,-5.04015 0.0553,-8.40002 0.16602,-10.08007 l 3.65625,-38.22267 c 3.1022,0 7.53563,0.13992 13.29687,0.41993 5.76124,0.28001 10.08227,0.41992 12.96289,0.41992 2.10507,0 3.32192,-1.53904 3.6543,-4.61914 v -55.4414 h -24.59571 c 0.44318,-3.78012 0.99736,-9.31158 1.66211,-16.5918 0.66476,-7.28023 1.21894,-12.80973 1.66212,-16.58984 0.22158,0 0.8862,0.0709 1.99413,0.21093 1.21872,0.14001 2.7156,0.27992 4.48829,0.41993 1.77268,0.14 3.4885,0.20897 5.15038,0.20897 12.40882,0 18.61329,-2.94012 18.61329,-8.82031 v -36.12109 c 0,-9.8003 -1.32925,-14.84109 -3.98828,-15.12109 h -20.27539 l 7.97851,-78.541015 c 0,-1.68006 -0.27806,-2.8703 -0.83203,-3.57032 -0.44317,-0.70002 -0.99735,-1.11976 -1.66211,-1.25976 -0.55396,-0.14001 -1.60515,-0.21094 -3.15625,-0.21094 h -39.88672 c -1.99427,2.52008 -4.15382,9.09991 -6.48046,19.740235 -2.21587,10.50032 -3.71274,21.42137 -4.48829,32.76172 v 31.5 h -16.28515 c 1.21872,-8.82027 2.71364,-22.04892 4.48632,-39.68945 1.77269,-17.64055 3.26761,-30.871145 4.48633,-39.691415 -0.66476,-2.52007 -2.04923,-4.20099 -4.15429,-5.04101 -1.99428,-0.84003 -4.93085,-1.25977 -8.80859,-1.25977 z m 224.60938,0.41992 c -9.74978,0 -22.82334,0.83948 -39.22071,2.51953 h -19.9414 c -18.83481,0 -28.25391,2.38048 -28.25391,7.14063 l 9.47266,167.166015 v 6.50977 c 0.11079,1.54005 0.22319,3.56976 0.33398,6.08984 0.1108,2.52008 0.33168,4.62074 0.66406,6.30079 0.33239,1.54004 0.77612,3.219 1.33008,5.03906 0.55397,1.68005 1.27382,3.08114 2.16016,4.20117 0.99713,1.12003 2.10549,1.95952 3.32421,2.51953 h 14.29102 c 2.99142,0 7.36768,-0.13992 13.1289,-0.41992 5.76123,-0.28001 10.1375,-0.41992 13.12892,-0.41992 1.4403,0 3.6018,0.0709 6.48242,0.21093 2.88062,0.14001 5.04016,0.20899 6.48047,0.20899 2.65903,0 5.04141,-0.069 7.14648,-0.20899 2.10506,-0.28001 4.09894,-0.63077 5.98242,-1.05078 1.99427,-0.56001 3.54637,-1.33051 4.6543,-2.31055 1.10793,-1.12003 1.71733,-2.37925 1.82812,-3.77929 L 401.07752,91.418265 c 0,-5.60017 -4.98567,-8.40039 -14.95703,-8.40039 z m -218.625,133.564465 h 7.31054 c 1.32952,0 3.76713,0.27983 7.3125,0.83984 h 7.97852 c 2.76981,0 4.31996,1.96074 4.65234,5.88086 l -5.98242,46.20117 h -25.92578 c -2.21586,0 -3.32422,-1.96074 -3.32422,-5.88086 0.66476,-4.90015 1.994,-11.97065 3.98828,-21.21093 1.99427,-9.3803 3.32548,-16.17098 3.99024,-20.37111 z M 308.3451,324.94562 c -1.7727,0 -3.21434,4.4102 -4.32227,13.23046 -1.10793,8.68027 -1.66211,18.551 -1.66211,29.61133 l 1.4961,31.91993 c 0.11078,0.42002 0.72019,0.97966 1.82812,1.67969 1.21873,0.70001 1.99379,1.26162 2.32617,1.68163 v 3.35938 h 7.64453 c 4.54251,0.14 9.03117,0.21093 13.4629,0.21093 h 15.7871 c 6.20441,0 11.90992,-0.21084 17.11719,-0.63086 5.20727,-0.27999 10.13771,-0.69973 14.79102,-1.25976 4.76409,-0.56001 8.53096,-1.33052 11.30078,-2.31055 2.88062,-0.98003 4.43271,-2.17027 4.65429,-3.57031 v -66.36132 c 0,-1.54005 -0.55418,-2.73029 -1.66211,-3.57031 -0.99713,-0.84003 -3.3243,-1.53959 -6.98047,-2.09962 -3.54537,-0.70002 -8.75193,-1.1907 -15.62109,-1.47071 -6.86916,-0.28 -16.06542,-0.41991 -27.58789,-0.41991 z"
       sodipodi:insensitive="true" />
    <path
       id="path1501"
       d="m 70,30 h 360 a 40,40 45 0 1 40,40 v 360 a 40,40 135 0 1 -40,40 H 70 A 40,40 45 0 1 30,430 V 70 A 40,40 135 0 1 70,30 Z"
       style="display:inline;fill:none;stroke:#000000;stroke-width:10;stroke-linecap:round;stroke-linejoin:bevel;stroke-dasharray:none;paint-order:markers fill stroke"
       sodipodi:insensitive="true" />
  </g>
</svg>
