<?xml version="1.0" encoding="UTF-8" standalone="no"?>
<!-- Created with Inkscape (http://www.inkscape.org/) -->

<svg
   width="512px"
   height="512px"
   viewBox="0 0 512 512"
   version="1.1"
   id="SVGRoot"
   sodipodi:docname="LabHackers-2.svg"
   inkscape:version="1.3 (0e150ed6c4, 2023-07-21)"
   inkscape:export-filename="LabHackers-16.png"
   inkscape:export-xdpi="3"
   inkscape:export-ydpi="3"
   xmlns:inkscape="http://www.inkscape.org/namespaces/inkscape"
   xmlns:sodipodi="http://sodipodi.sourceforge.net/DTD/sodipodi-0.dtd"
   xmlns:xlink="http://www.w3.org/1999/xlink"
   xmlns="http://www.w3.org/2000/svg"
   xmlns:svg="http://www.w3.org/2000/svg">
  <sodipodi:namedview
     id="namedview3923"
     pagecolor="#ffffff"
     bordercolor="#111111"
     borderopacity="1"
     inkscape:showpageshadow="0"
     inkscape:pageopacity="0"
     inkscape:pagecheckerboard="1"
     inkscape:deskcolor="#d1d1d1"
     inkscape:document-units="px"
     showgrid="false"
     inkscape:zoom="1.4824219"
     inkscape:cx="259.37285"
     inkscape:cy="254.31357"
     inkscape:window-width="1920"
     inkscape:window-height="996"
     inkscape:window-x="1912"
     inkscape:window-y="-8"
     inkscape:window-maximized="1"
     inkscape:current-layer="SVGRoot" />
  <defs
     id="defs3918">
    <linearGradient
       id="linearGradient39013"
       inkscape:swatch="solid">
      <stop
         style="stop-color:#ffa500;stop-opacity:1;"
         offset="0"
         id="stop39011" />
    </linearGradient>
    <linearGradient
       id="linearGradient38647"
       inkscape:swatch="solid">
      <stop
         style="stop-color:#ffa500;stop-opacity:1;"
         offset="0"
         id="stop38645" />
    </linearGradient>
    <marker
       style="overflow:visible"
       id="Arrow5"
       refX="0"
       refY="0"
       orient="auto-start-reverse"
       inkscape:stockid="Arrow5"
       markerWidth="5.8874264"
       markerHeight="6.6094756"
       viewBox="0 0 5.8874262 6.6094758"
       inkscape:isstock="true"
       inkscape:collect="always"
       preserveAspectRatio="xMidYMid">
      <path
         transform="scale(0.5)"
         style="fill:context-stroke;fill-rule:evenodd;stroke:context-stroke;stroke-width:1pt"
         d="m 6,0 c -3,1 -7,3 -9,5 0,0 0,-4 2,-5 -2,-1 -2,-5 -2,-5 2,2 6,4 9,5 z"
         id="path8893" />
    </marker>
    <linearGradient
       id="linearGradient18238"
       inkscape:swatch="solid">
      <stop
         style="stop-color:#f6ab0c;stop-opacity:1;"
         offset="0"
         id="stop18236" />
    </linearGradient>
    <marker
       style="overflow:visible"
       id="marker12715"
       refX="0"
       refY="0"
       orient="auto"
       inkscape:stockid="Dot"
       markerWidth="3.6670001"
       markerHeight="3.6670001"
       viewBox="0 0 5.6666667 5.6666667"
       inkscape:isstock="true"
       inkscape:collect="always"
       preserveAspectRatio="xMidYMid">
      <path
         transform="scale(0.5)"
         style="fill:context-stroke;fill-rule:evenodd;stroke:context-stroke;stroke-width:1pt"
         d="M 5,0 C 5,2.76 2.76,5 0,5 -2.76,5 -5,2.76 -5,0 c 0,-2.76 2.3,-5 5,-5 2.76,0 5,2.24 5,5 z"
         id="path12713"
         sodipodi:nodetypes="sssss" />
    </marker>
    <marker
       style="overflow:visible"
       id="marker9517"
       refX="0"
       refY="0"
       orient="auto"
       inkscape:stockid="Dot"
       markerWidth="3.6670001"
       markerHeight="3.6670001"
       viewBox="0 0 5.6666667 5.6666667"
       inkscape:isstock="true"
       inkscape:collect="always"
       preserveAspectRatio="xMidYMid">
      <path
         transform="scale(0.5)"
         style="fill:context-stroke;fill-rule:evenodd;stroke:context-stroke;stroke-width:1pt"
         d="M 5,0 C 5,2.76 2.76,5 0,5 -2.76,5 -5,2.76 -5,0 c 0,-2.76 2.3,-5 5,-5 2.76,0 5,2.24 5,5 z"
         id="path9515"
         sodipodi:nodetypes="sssss" />
    </marker>
    <marker
       style="overflow:visible"
       id="marker8689"
       refX="0"
       refY="0"
       orient="auto"
       inkscape:stockid="Dot"
       markerWidth="3.6670001"
       markerHeight="3.6670001"
       viewBox="0 0 5.6666667 5.6666667"
       inkscape:isstock="true"
       inkscape:collect="always"
       preserveAspectRatio="xMidYMid">
      <path
         transform="scale(0.5)"
         style="fill:context-stroke;fill-rule:evenodd;stroke:context-stroke;stroke-width:1pt"
         d="M 5,0 C 5,2.76 2.76,5 0,5 -2.76,5 -5,2.76 -5,0 c 0,-2.76 2.3,-5 5,-5 2.76,0 5,2.24 5,5 z"
         id="path8687"
         sodipodi:nodetypes="sssss" />
    </marker>
    <marker
       style="overflow:visible"
       id="Dot"
       refX="0"
       refY="0"
       orient="auto"
       inkscape:stockid="Dot"
       markerWidth="3.6670001"
       markerHeight="3.6670001"
       viewBox="0 0 5.6666667 5.6666667"
       inkscape:isstock="true"
       inkscape:collect="always"
       preserveAspectRatio="xMidYMid">
      <path
         transform="scale(0.5)"
         style="fill:context-stroke;fill-rule:evenodd;stroke:context-stroke;stroke-width:1pt"
         d="M 5,0 C 5,2.76 2.76,5 0,5 -2.76,5 -5,2.76 -5,0 c 0,-2.76 2.3,-5 5,-5 2.76,0 5,2.24 5,5 z"
         id="Dot1"
         sodipodi:nodetypes="sssss" />
    </marker>
    <clipPath
       id="d71fbada88">
      <path
         d="M 16.476562,136 H 52 v 80 H 16.476562 Z m 0,0"
         clip-rule="nonzero"
         id="path17263" />
    </clipPath>
    <clipPath
       id="5f7e1fed75">
      <path
         d="m 61,136 h 35.054688 v 80 H 61 Z m 0,0"
         clip-rule="nonzero"
         id="path17266" />
    </clipPath>
    <clipPath
       id="e85df01f44">
      <path
         d="M 49,126.78906 H 63 V 137 H 49 Z m 0,0"
         clip-rule="nonzero"
         id="path17260" />
    </clipPath>
    <clipPath
       id="a69f182ea7">
      <path
         d="m 26,142.08594 h 60.605469 v 78.38281 H 26 Z m 0,0"
         clip-rule="nonzero"
         id="path17275" />
    </clipPath>
    <linearGradient
       inkscape:collect="always"
       xlink:href="#linearGradient18238"
       id="linearGradient18240"
       x1="150.58"
       y1="228.95896"
       x2="360.57666"
       y2="228.95896"
       gradientUnits="userSpaceOnUse" />
    <linearGradient
       inkscape:collect="always"
       xlink:href="#linearGradient18238"
       id="linearGradient18868"
       gradientUnits="userSpaceOnUse"
       x1="150.58"
       y1="228.95896"
       x2="360.57666"
       y2="228.95896" />
    <linearGradient
       inkscape:collect="always"
       xlink:href="#linearGradient18238"
       id="linearGradient18870"
       gradientUnits="userSpaceOnUse"
       x1="150.58"
       y1="228.95896"
       x2="360.57666"
       y2="228.95896" />
    <linearGradient
       inkscape:collect="always"
       xlink:href="#linearGradient18238"
       id="linearGradient18872"
       gradientUnits="userSpaceOnUse"
       x1="150.58"
       y1="228.95896"
       x2="360.57666"
       y2="228.95896" />
    <linearGradient
       inkscape:collect="always"
       xlink:href="#linearGradient18238"
       id="linearGradient18874"
       gradientUnits="userSpaceOnUse"
       x1="150.58"
       y1="228.95896"
       x2="360.57666"
       y2="228.95896" />
    <linearGradient
       inkscape:collect="always"
       xlink:href="#linearGradient18238"
       id="linearGradient25738"
       gradientUnits="userSpaceOnUse"
       x1="150.58"
       y1="228.95896"
       x2="360.57666"
       y2="228.95896"
       gradientTransform="translate(-2.7826841,7.4116504)" />
    <linearGradient
       inkscape:collect="always"
       xlink:href="#linearGradient18238"
       id="linearGradient26195"
       gradientUnits="userSpaceOnUse"
       x1="150.58"
       y1="228.95896"
       x2="360.57666"
       y2="228.95896" />
    <linearGradient
       inkscape:collect="always"
       xlink:href="#linearGradient18238"
       id="linearGradient26197"
       gradientUnits="userSpaceOnUse"
       x1="150.58"
       y1="228.95896"
       x2="360.57666"
       y2="228.95896" />
    <linearGradient
       inkscape:collect="always"
       xlink:href="#linearGradient18238"
       id="linearGradient26199"
       gradientUnits="userSpaceOnUse"
       x1="150.58"
       y1="228.95896"
       x2="360.57666"
       y2="228.95896" />
    <linearGradient
       inkscape:collect="always"
       xlink:href="#linearGradient18238"
       id="linearGradient26201"
       gradientUnits="userSpaceOnUse"
       x1="150.58"
       y1="228.95896"
       x2="360.57666"
       y2="228.95896" />
    <filter
       style="color-interpolation-filters:sRGB;"
       inkscape:label="Drop Shadow"
       id="filter32"
       x="-0.12910083"
       y="-0.076555008"
       width="1.2582017"
       height="1.1208709">
      <feFlood
         result="flood"
         in="SourceGraphic"
         flood-opacity="1.000000"
         flood-color="rgb(255,255,0)"
         id="feFlood31" />
      <feGaussianBlur
         result="blur"
         in="SourceGraphic"
         stdDeviation="4.000000"
         id="feGaussianBlur31" />
      <feOffset
         result="offset"
         in="blur"
         dx="0.000000"
         dy="0.000000"
         id="feOffset31" />
      <feComposite
         result="comp1"
         operator="in"
         in="offset"
         in2="flood"
         id="feComposite31" />
      <feComposite
         result="comp2"
         operator="over"
         in="SourceGraphic"
         in2="comp1"
         id="feComposite32" />
    </filter>
  </defs>
  <g
     id="g17718"
     transform="translate(-1.8180365,-15.010177)"
     style="display:inline"
     inkscape:label="Shield Assembly">
    <g
       id="g17655"
       transform="matrix(3.8508332,0,0,3.8508332,-1365.7417,-1298.4147)"
       style="fill:#f6ab0c;fill-opacity:1">
      <path
         fill="#f6c541"
         d="m 439.85338,358.25892 c -2.90104,2.21353 -5.7552,4.29166 -8.55208,6.23957 19.45312,12.07813 33.85937,17.05209 33.85937,17.05209 0,31.82291 -13.96354,61.66667 -37.57291,82.05208 29.08333,-19.60417 46.72916,-52.45833 46.72916,-87.82292 0,0 -14.76041,-5.09374 -34.46354,-17.52082"
         fill-opacity="1"
         fill-rule="nonzero"
         id="path17325"
         style="display:inline;fill:#f6ab0c;fill-opacity:1;stroke-width:1.33333" />
      <path
         fill="#ffa500"
         d="m 377.3638,381.55058 c 0,0 14.40625,-4.97396 33.85417,-17.05209 -2.79167,-1.94791 -5.65104,-4.02604 -8.54688,-6.23957 -19.70312,12.42708 -34.46354,17.52082 -34.46354,17.52082 0,35.36459 17.64583,68.21875 46.72396,87.82292 -23.60417,-20.38541 -37.56771,-50.22917 -37.56771,-82.05208"
         fill-opacity="1"
         fill-rule="nonzero"
         id="path17321"
         style="fill:#f6ab0c;fill-opacity:1;stroke-width:1.33333" />
      <path
         fill="#f6c541"
         d="m 421.25963,357.89954 c 2.82292,-1.95833 5.70834,-4.05729 8.63542,-6.29688 -2.82292,-1.99478 -5.70833,-4.13021 -8.63542,-6.41145 -2.92187,2.28124 -5.80729,4.41667 -8.63541,6.41145 2.92708,2.23959 5.8125,4.33855 8.63541,6.29688"
         fill-opacity="1"
         fill-rule="nonzero"
         id="path17317"
         inkscape:label="path17317"
         style="fill:#f6ab0c;fill-opacity:1;stroke-width:1.33333" />
    </g>
    <g
       id="g17701"
       transform="translate(0,50.592885)"
       style="display:inline">
      <path
         fill="#f6c541"
         d="m 110.27495,119.54354 c 0,129.6658 53.97186,251.65193 146.06232,338.58146 V 45.90739 c -83.87574,52.169228 -146.06232,73.63615 -146.06232,73.63615"
         fill-opacity="1"
         fill-rule="nonzero"
         id="path361"
         style="display:inline;fill:#0d1117;fill-opacity:1;stroke:#0d1117;stroke-width:2.10718;stroke-opacity:1" />
      <path
         fill="#ffa500"
         d="M 256.33727,45.90739 V 458.125 C 348.42775,371.19547 402.3996,249.20934 402.3996,119.54354 c 0,0 -62.18658,-21.466922 -146.06233,-73.63615"
         fill-opacity="1"
         fill-rule="nonzero"
         id="path365"
         style="display:inline;fill:#0d1117;fill-opacity:1;stroke:#0d1117;stroke-width:2.10718;stroke-opacity:1" />
    </g>
  </g>
  <g
     id="g34549"
     transform="matrix(0.76871456,0,0,0.76871456,58.658364,103.78191)"
     style="display:inline;stroke:url(#linearGradient18240);filter:url(#filter32)"
     inkscape:label="LabHacker's Logo">
    <g
       id="g34563"
       transform="translate(11.414383,0.19926795)"
       style="stroke:url(#linearGradient18874)">
      <path
         style="fill:none;stroke:url(#linearGradient18868);stroke-width:7.20163;stroke-linecap:round;stroke-linejoin:miter;stroke-miterlimit:4;stroke-dasharray:none;stroke-dashoffset:0;marker-end:url(#Dot);paint-order:markers fill stroke"
         d="m 174.10988,361.75632 48.55739,-42.7549 0.47161,-149.73726 -33.05402,-33.72859 -0.67457,-37.101454"
         id="path34569"
         sodipodi:nodetypes="ccccc" />
      <path
         style="fill:none;stroke:url(#linearGradient18870);stroke-width:7.20163;stroke-linecap:round;stroke-linejoin:miter;stroke-miterlimit:4;stroke-dasharray:none;stroke-dashoffset:0;marker-end:url(#marker8689);paint-order:markers fill stroke"
         d="m 221.11516,226.74505 -66.10804,-62.0606"
         id="path34567" />
      <path
         style="fill:none;stroke:url(#linearGradient18872);stroke-width:7.20163;stroke-linecap:round;stroke-linejoin:miter;stroke-miterlimit:4;stroke-dasharray:none;stroke-dashoffset:0;marker-start:url(#marker9517);paint-order:markers fill stroke"
         d="m 161.07826,228.76876 26.98288,-28.33201"
         id="path34565" />
    </g>
    <g
       id="g34555"
       transform="matrix(-1,0,0,1,497.98256,0.19926795)"
       style="stroke:url(#linearGradient26201)">
      <path
         style="fill:none;stroke:url(#linearGradient26195);stroke-width:7.20163;stroke-linecap:round;stroke-linejoin:miter;stroke-miterlimit:4;stroke-dasharray:none;stroke-dashoffset:0;marker-end:url(#Dot);paint-order:markers fill stroke"
         d="m 174.10988,361.75632 48.55739,-42.7549 0.47161,-149.73726 -33.05402,-33.72859 -0.67457,-37.101454"
         id="path34561"
         sodipodi:nodetypes="ccccc" />
      <path
         style="fill:none;stroke:url(#linearGradient26197);stroke-width:7.20163;stroke-linecap:round;stroke-linejoin:miter;stroke-miterlimit:4;stroke-dasharray:none;stroke-dashoffset:0;marker-end:url(#marker8689);paint-order:markers fill stroke"
         d="m 221.11516,226.74505 -66.10804,-62.0606"
         id="path34559" />
      <path
         style="fill:none;stroke:url(#linearGradient26199);stroke-width:7.20163;stroke-linecap:round;stroke-linejoin:miter;stroke-miterlimit:4;stroke-dasharray:none;stroke-dashoffset:0;marker-start:url(#marker9517);paint-order:markers fill stroke"
         d="m 161.07826,228.76876 26.98288,-28.33201"
         id="path34557" />
    </g>
    <path
       style="display:none;fill:#ffa500;fill-opacity:1;stroke:#ffa500;stroke-width:7.20163;stroke-linecap:round;stroke-linejoin:miter;stroke-miterlimit:4;stroke-dasharray:none;stroke-dashoffset:0;stroke-opacity:1;marker-end:url(#Arrow5);paint-order:stroke fill markers"
       d="M 254.27748,367.11783 V 358.3425"
       id="path34553" />
    <path
       style="display:inline;fill:none;stroke:url(#linearGradient25738);stroke-width:7.20163;stroke-linecap:round;stroke-linejoin:miter;stroke-miterlimit:4;stroke-dasharray:none;stroke-dashoffset:0;marker-end:url(#marker12715);paint-order:stroke fill markers"
       d="M 254.22918,193.59347 255.57832,64.075697"
       id="path34551" />
  </g>
  <g
     id="g41284"
     transform="matrix(0.22430208,0,0,0.22430208,152.95935,361.97324)"
     style="display:inline"
     inkscape:label="RedEyed Logo">
    <g
       id="g10518"
       style="display:inline"
       inkscape:label="Body"
       transform="matrix(0.84137327,0,0,0.84137327,209.00751,-15.846998)">
      <path
         id="Star - L"
         class="s1"
         d="m 173.5,217 25.2,71.1 80.3,0.3 -64.8,44.3 24.5,71.3 -65.2,-43.7 -65.2,43.7 24.5,-71.3 -64.8,-44.3 80.3,-0.3 z"
         style="display:inline;fill:#ffffff" />
      <path
         id="Star - R"
         class="s1"
         d="m 433.5,217 25.2,71.1 80.3,0.3 -64.8,44.3 24.5,71.3 -65.2,-43.7 -65.2,43.7 24.5,-71.3 -64.8,-44.3 80.3,-0.3 z"
         style="display:inline;fill:#ffffff" />
      <path
         id="&quot;Eyebrow&quot;"
         class="s2"
         d="m 299,171.5 c 22.7,0.2 31.3,0.7 42.5,2.5 7.7,1.1 20.1,3.5 27.5,5.1 7.4,1.7 20.7,5.5 29.5,8.4 8.8,2.9 20.5,7.1 26,9.5 5.5,2.3 17,7.8 25.5,12.1 8.5,4.3 20.2,10.9 26,14.5 5.8,3.6 15.6,10.2 21.9,14.7 6.3,4.5 17.1,12.9 24,18.7 6.9,5.8 19.4,17.4 27.8,25.8 8.4,8.3 15.3,15.6 15.3,16.2 0,0.6 -0.3,1 -0.8,1 -0.4,0 -3.6,-2.5 -7.2,-5.6 -3.6,-3.1 -12.1,-10.2 -19,-15.7 -6.9,-5.6 -18.8,-14.7 -26.5,-20.2 -7.7,-5.5 -20.5,-14 -28.5,-18.9 -8,-4.9 -20.4,-12 -27.5,-15.7 -7.1,-3.7 -18.6,-9.2 -25.5,-12.2 -6.9,-3 -18.4,-7.5 -25.5,-10 -7.1,-2.5 -19.5,-6.1 -27.5,-8.1 -8,-2 -20.4,-4.5 -27.5,-5.6 -7.1,-1.1 -20.2,-2.4 -29,-2.9 -10.2,-0.6 -21.7,-0.7 -31.8,0 -8.6,0.5 -19,1.4 -22.9,1.9 -4,0.6 -11.1,1.7 -15.8,2.6 -4.7,0.8 -13.9,2.9 -20.5,4.5 -6.6,1.7 -16.7,4.6 -22.5,6.6 -5.8,1.9 -16.1,5.7 -23,8.5 -6.9,2.8 -20.8,9.3 -31,14.4 -10.2,5.2 -25.5,13.7 -34,19 -8.5,5.2 -21.6,13.9 -29,19.2 -7.4,5.3 -17.9,13.2 -33,25.2 l 3.4,7.7 c 1.8,4.3 9.5,21.7 17,38.8 7.5,17.1 13.6,31.3 13.6,31.8 0,0.4 -0.4,0.6 -1,0.4 -0.5,-0.1 -14.4,-19 -31,-42 C 29.6,282.8 29,282 30.7,279.9 c 1,-1.2 6.8,-6.3 12.8,-11.3 6,-5.1 15.5,-12.6 21,-16.8 5.5,-4.1 15.8,-11.3 23,-16 7.2,-4.7 17.5,-11.2 23,-14.3 5.5,-3.2 14.4,-7.9 19.8,-10.6 5.3,-2.7 15.9,-7.5 23.4,-10.8 7.6,-3.2 19.9,-7.9 27.3,-10.4 7.4,-2.5 19.8,-6.2 27.5,-8.1 7.7,-2 19.4,-4.5 26,-5.7 6.6,-1.1 17.4,-2.7 24,-3.4 8.3,-1 20.8,-1.3 40.5,-1 z"
         style="display:inline;opacity:0.9;fill:#ff0000" />
    </g>
    <g
       id="g10526"
       style="display:inline"
       inkscape:label="Red Star"
       transform="matrix(0.84137327,0,0,0.84137327,209.00751,-15.846998)">
      <path
         id="path10133"
         class="s1"
         d="m 303.5,217 25.2,71.1 80.3,0.3 -64.8,44.3 24.5,71.3 -65.2,-43.7 -65.2,43.7 24.5,-71.3 -64.8,-44.3 80.3,-0.3 z"
         style="display:none;fill:#ff0000;fill-opacity:1"
         inkscape:label="Red Star - Equal" />
      <path
         id="path10500"
         class="s1"
         d="m 303.5,187.08 33.264,93.852 105.996,0.396 -85.536,58.476 32.34,94.116 -86.064,-57.684 -86.064,57.684 32.34,-94.116 -85.536,-58.476 105.996,-0.396 z"
         style="display:inline;fill:#ff0000;fill-opacity:1;stroke-width:1.32"
         inkscape:label="Red Star - Large" />
    </g>
  </g>
</svg>
