<?xml version="1.0" encoding="UTF-8" standalone="no"?>
<svg
   version="1.2"
   viewBox="0 0 500 500"
   width="500"
   height="500"
   id="svg23"
   sodipodi:docname="d20RB.svg"
   inkscape:export-filename="d20RB-16.png"
   inkscape:export-xdpi="6.1399999"
   inkscape:export-ydpi="6.1399999"
   inkscape:version="1.3 (0e150ed6c4, 2023-07-21)"
   xmlns:inkscape="http://www.inkscape.org/namespaces/inkscape"
   xmlns:sodipodi="http://sodipodi.sourceforge.net/DTD/sodipodi-0.dtd"
   xmlns="http://www.w3.org/2000/svg"
   xmlns:svg="http://www.w3.org/2000/svg"
   xmlns:rdf="http://www.w3.org/1999/02/22-rdf-syntax-ns#"
   xmlns:cc="http://creativecommons.org/ns#"
   xmlns:dc="http://purl.org/dc/elements/1.1/">
  <defs
     id="defs27">
    <filter
       style="color-interpolation-filters:sRGB"
       inkscape:label="Drop Shadow"
       id="filter223"
       x="-0.18062934"
       y="-0.11446741"
       width="1.3081324"
       height="1.2766296">
      <feFlood
         flood-opacity="0.74902"
         flood-color="rgb(0,0,0)"
         result="flood"
         id="feFlood213" />
      <feComposite
         in="flood"
         in2="SourceGraphic"
         operator="in"
         result="composite1"
         id="feComposite215" />
      <feGaussianBlur
         in="composite1"
         stdDeviation="3"
         result="blur"
         id="feGaussianBlur217" />
      <feOffset
         dx="-3"
         dy="3"
         result="offset"
         id="feOffset219" />
      <feComposite
         in="SourceGraphic"
         in2="offset"
         operator="over"
         result="composite2"
         id="feComposite221" />
    </filter>
  </defs>
  <sodipodi:namedview
     id="namedview25"
     pagecolor="#ffffff"
     bordercolor="#111111"
     borderopacity="1"
     inkscape:showpageshadow="0"
     inkscape:pageopacity="0"
     inkscape:pagecheckerboard="1"
     inkscape:deskcolor="#d1d1d1"
     showgrid="false"
     inkscape:zoom="1.6"
     inkscape:cx="249.6875"
     inkscape:cy="250"
     inkscape:window-width="1920"
     inkscape:window-height="996"
     inkscape:window-x="1912"
     inkscape:window-y="-8"
     inkscape:window-maximized="1"
     inkscape:current-layer="svg23" />
  <title
     id="title15">d20</title>
  <style
     id="style17">&#10;		.s0 { fill: #000000 } &#10;		.s1 { opacity: .7;fill: #ff0000 } &#10;		.s2 { opacity: 1;fill: #ff0000 } &#10;		.s3 { fill: #ffffff } &#10;	</style>
  <g
     id="g1"
     inkscape:label="Logo"
     transform="matrix(2.118473,0,0,2.118473,-14.788296,-30.253795)">
    <path
       id="Backing"
       class="s0"
       d="m 131.4,19.6 c 3.3,1.9 7.2,3.9 8.6,4.6 1.4,0.7 3.6,2 5,2.9 1.4,0.9 4.2,2.6 6.2,3.8 2.1,1.1 5.5,3.1 7.5,4.2 2.1,1.2 12.6,7.3 23.3,13.7 10.7,6.3 20.2,11.7 21,12 0.8,0.3 2.8,1.5 4.5,2.7 1.6,1.2 4.5,2.9 6.2,3.8 1.8,0.9 4.5,2.3 6,3.1 1.6,0.8 3.4,2 4,2.8 1,1 1.3,14.3 1.3,58.8 -0.1,31.6 -0.5,57.9 -0.9,58.5 -0.5,0.5 -6,4 -12.2,7.6 -6.3,3.7 -15,8.7 -19.4,11.2 -4.4,2.4 -13.2,7.5 -19.5,11.2 -6.3,3.8 -13.8,8 -16.5,9.5 -2.8,1.4 -11,6.1 -31.5,18 l -6.3,-3.5 c -3.4,-1.9 -7.3,-4 -8.7,-4.7 -1.4,-0.7 -3.6,-2 -5,-2.9 -1.4,-0.9 -4.2,-2.6 -6.3,-3.8 -2,-1.1 -5.4,-3.1 -7.5,-4.2 -2,-1.2 -12.5,-7.3 -23.2,-13.7 -10.7,-6.3 -20.2,-11.7 -21,-12 -0.8,-0.3 -2.9,-1.5 -4.5,-2.7 -1.7,-1.2 -4.6,-3 -6.5,-4 -1.9,-0.9 -4.6,-2.3 -6,-3 -1.4,-0.7 -3.1,-1.9 -3.7,-2.7 -1,-1 -1.3,-14.3 -1.3,-58.8 0.1,-31.6 0.5,-58 0.9,-58.5 0.5,-0.6 6,-4 12.2,-7.6 6.3,-3.7 15,-8.7 19.4,-11.2 4.4,-2.4 13.2,-7.5 19.5,-11.2 6.3,-3.8 13.7,-8 16.5,-9.5 2.7,-1.4 10.4,-5.8 17,-9.7 6.6,-3.8 12.6,-7.2 13.4,-7.5 0.8,-0.3 4.1,1 7.5,2.8 z" />
    <path
       id="Outer"
       fill-rule="evenodd"
       class="s1"
       d="m 126,14.3 c 0.8,0.2 13.9,7.6 29,16.3 15.1,8.8 37.5,21.8 49.8,28.9 14.4,8.4 22.4,13.7 22.8,15 0.4,1.1 0.2,28 -1.1,117.5 l -15,8.7 c -8.3,4.7 -20.2,11.6 -26.5,15.3 -6.3,3.7 -21,12.1 -32.5,18.7 -11.6,6.7 -22.6,12.9 -28,15.6 L 95,233.3 C 78.8,223.9 55.9,210.7 44.2,203.9 30.5,195.9 22.7,190.8 22.4,189.5 22,188.4 22.1,161.5 23.5,71.9 l 5,-2.8 C 31.2,67.5 39.1,63 46,59 52.9,55 70.6,44.7 85.5,36.2 c 14.8,-8.6 29.7,-17.1 33,-18.9 3.3,-1.8 6.7,-3.2 7.5,-3 z M 63,53.5 C 47.9,62.3 33.4,70.6 30.8,72 L 26,74.5 V 189 c 14.3,8.4 34.2,19.9 53.5,31 19.2,11.2 37.1,21.6 39.7,23.1 2.7,1.6 5,2.9 5.3,2.9 0.3,0 8.3,-4.4 17.7,-9.8 9.5,-5.4 29.7,-17 44.8,-25.7 15.1,-8.8 29.6,-17.1 32.2,-18.5 l 4.8,-2.5 V 75 C 209.7,66.6 189.7,55.1 170.5,44 151.2,32.8 133.4,22.4 130.7,20.9 c -2.6,-1.6 -5,-2.9 -5.5,-2.9 -0.4,0.1 -8.4,4.5 -17.7,9.9 C 98.1,33.3 78.1,44.8 63,53.5 Z" />
    <path
       id="Inner"
       class="s2"
       d="m 122.7,22.1 c 1,-0.1 1.3,3 1.3,12.4 0,6.9 -0.2,12.5 -0.5,12.5 -0.3,0 -5.8,1.5 -12.3,3.4 -6.4,1.9 -22.1,6.5 -34.7,10.1 -12.7,3.7 -27.5,8 -33,9.6 -5.5,1.5 -10.1,2.7 -10.3,2.6 -0.1,-0.1 4.1,-2.8 9.5,-5.9 C 48.1,63.7 61.5,56.1 72.5,49.9 83.5,43.7 99,35 107,30.4 c 8,-4.5 15.1,-8.2 15.7,-8.3 z m 5.2,0.4 c 0.9,0.3 14.9,8.2 31.1,17.4 16.2,9.3 35.3,20.1 42.5,24.1 7.1,4.1 12.5,7.5 12,7.7 C 212.9,71.9 208.7,71 204,69.6 199.3,68.3 183.1,63.5 168,59 152.9,54.5 137.2,49.8 126,46.5 l 0.1,-12.4 c 0.2,-10.8 0.4,-12.2 1.8,-11.6 z M 28.4,78 c 0.2,0.3 3.2,9.9 6.6,21.5 3.4,11.5 7.2,24.4 8.5,28.5 1.3,4.1 4.2,14 6.6,22 2.3,8 4.3,14.8 4.5,15.2 0.2,0.5 -5.1,4.6 -11.9,9.1 -6.7,4.6 -12.8,8.7 -13.5,9 C 28.3,183.9 28,173 28,130.7 28,101.5 28.1,77.7 28.4,78 Z m 193.3,52.5 c 0.2,29.1 0,53.1 -0.2,53.2 -0.3,0.2 -6.4,-3.8 -13.5,-8.7 -9.9,-6.8 -12.9,-9.4 -12.5,-10.8 0.2,-0.9 1.4,-4.9 2.5,-8.7 1.2,-3.9 3.6,-12.2 5.5,-18.5 1.9,-6.3 6.2,-20.7 9.5,-32 3.4,-11.3 6.6,-22.1 7.3,-24 1,-2.8 1.2,6.8 1.4,49.5 z M 124.3,168 c 40.3,0 65.6,0.4 65.4,0.9 -0.1,0.5 -12.6,14.8 -27.7,31.7 -15.1,16.9 -29.5,33.1 -32,36 -2.5,2.9 -4.8,5.3 -5.3,5.3 -0.4,0.1 -11.2,-11.7 -24,-26.1 C 88,201.4 73.9,185.5 69.5,180.5 65.1,175.6 60.8,170.7 60,169.7 58.6,168.1 61.8,168 124.3,168 Z M 120.5,50.1 c 0.6,-0.1 1,0.3 1,0.7 0,0.5 -14.6,26.1 -32.5,56.9 C 71.1,138.6 56.2,163.6 55.9,163.2 55.5,162.8 53.1,155.1 50.4,146 47.8,136.9 42.2,117.6 38,103 32.7,85 30.6,76.3 31.4,75.9 c 0.6,-0.4 16.4,-5 35.1,-10.4 18.7,-5.4 38.3,-11 43.5,-12.6 5.2,-1.5 10,-2.8 10.5,-2.8 z m 7.2,-0.1 c 0.4,0 20.4,5.6 44.3,12.5 23.9,6.8 44.2,12.8 45.1,13.2 1.4,0.7 0.9,3.4 -4.8,22.8 -3.5,12.1 -9.1,31.4 -12.5,43 -3.3,11.5 -6.3,21.3 -6.7,21.7 -0.3,0.4 -4.5,-6.1 -9.4,-14.5 -4.8,-8.3 -12.9,-22.4 -18,-31.2 C 160.6,108.7 150.3,90.9 142.8,78 135.4,65.1 128.7,53.5 128.1,52.2 127.4,51 127.2,50 127.7,50 Z m -2.6,1.8 c 0.4,0.4 4.5,7.2 9.1,15.2 4.6,8 12.9,22.4 18.5,32 5.5,9.6 16.1,27.8 23.3,40.5 7.3,12.6 13.5,23.6 13.6,24.2 0.3,1 -13.2,1.3 -65.1,1.3 -36,0 -65.5,-0.2 -65.5,-0.5 0,-0.3 2.8,-5.3 6.3,-11.3 3.5,-5.9 11,-18.8 16.7,-28.7 5.7,-9.9 14,-24.3 18.5,-32 4.5,-7.7 11.7,-20.2 16,-27.7 4.4,-7.6 8.2,-13.4 8.6,-13 z m -69.6,117.4 4.4,4.6 c 2.4,2.6 12.3,13.4 22,24.1 9.7,10.7 22,24.3 27.3,30.3 5.4,5.9 9.7,11 9.5,11.3 -0.1,0.3 -19.1,-10.6 -42.2,-24.2 C 53.4,201.8 33.3,190 31.8,189.1 30.2,188.2 29,187.3 29,187 c 0,-0.3 6,-4.4 13.3,-9.2 z m 138.8,0.9 c 0.7,0 6.9,3.8 13.9,8.5 7,4.6 12.7,8.6 12.5,8.8 -0.1,0.2 -8.3,5.1 -18.2,10.9 -9.9,5.8 -29.5,17.3 -43.5,25.5 -14,8.3 -26.4,15.4 -27.5,15.9 -1.1,0.4 1.6,-3.3 6,-8.2 4.4,-4.9 12.5,-13.9 18,-20 5.5,-6 16.2,-17.9 23.8,-26.2 7.6,-8.4 14.4,-15.2 15,-15.2 z" />
    <path
       id="R - Rapscallion - W"
       class="s3"
       aria-label="R"
       d="m 106,123.8 1.8,-0.6 v -1.9 q 0.6,0.1 3,0.1 -0.3,-0.7 -1.6,-1.3 -1.4,-0.7 -1.4,-2 v -3.5 q 0,-1.1 1.7,-2.2 -0.1,-0.1 -0.3,-0.3 l -1.4,-1.5 v -6.9 q -0.4,-0.3 -0.8,-0.3 -0.6,0 -1.8,0.7 -1.3,0.6 -1.7,0.6 -0.7,0.6 -0.7,1.3 0.8,0 2.2,0.8 0,1.8 -1.1,2 -2.3,0.6 -3.1,-1.3 0,-0.4 -0.4,-0.9 -0.3,-0.7 -0.3,-0.8 0,-0.4 0.3,-0.5 1.8,-3.3 4,-2.9 0.1,-0.8 1.3,-1.5 1,-0.6 1.9,-1.1 0.3,-0.8 1.7,-1.2 1.5,-0.6 1.5,-1.4 1.6,-1.4 4.4,-3.6 1,0.2 2.1,2.1 0,-0.9 -0.2,1.3 -0.3,2.1 -0.2,2.2 0.2,-0.4 1.1,-1.5 1,-1.2 1.3,-1.1 1.4,1.8 4.7,1.5 3,-0.7 2.2,-0.7 0.7,0 1.1,0.5 0.3,-0.5 0.7,-1.4 0.6,0 1.6,-0.4 1.2,-0.4 1.6,-0.4 1.7,-1 4.9,-3.1 1.1,0.4 1.4,0.5 0.5,0.5 0.6,1.2 0,0.4 -0.5,0.8 -1.1,-0.5 -1.6,-0.4 l -0.5,0.5 q 1.2,1.6 2.9,5 -0.1,0.2 -0.5,0.2 -0.6,0 -0.7,0.2 1.2,1.8 2.8,1.9 0,0.1 2.4,4.1 1.5,2.3 1.8,4.3 -0.2,0.1 -0.7,0.4 -0.6,0.1 -0.6,0.4 0,0.1 0.1,0.3 0.1,0.5 0.7,0.6 0.7,0.1 0.8,0.4 0.5,3.9 -2.9,7 -0.1,-0.1 -0.3,-0.1 -0.1,0 -0.4,0.1 -0.5,0.2 -0.5,-0.2 -0.8,1.4 -4.3,4 1.5,0.5 7.4,0.7 0.3,0.1 0.2,0.5 -0.1,0.8 -0.3,0.9 -0.2,0.2 -1,0.1 -1,0 -1,0.8 v 1.8 q 0,0.9 0.7,1.3 0,0.6 -0.3,0.7 0.4,0.8 0.5,1.7 l -0.9,1.1 h 1.6 q 1.5,2.8 1.5,3.9 3.5,1.9 4.7,1.9 0.8,-0.7 2,-2.6 0.2,-0.5 1.6,-0.7 0.1,0.6 0.2,1.8 -0.9,0.7 -2.5,2.1 -1.5,1.4 -1.8,2.9 L 148,143 q 0.2,0.4 0.2,0.8 0,0.5 -0.4,1.4 -0.4,0.9 -0.4,1.1 -0.5,1.4 -1.4,4.3 -0.2,0 -5.4,-1.7 -0.6,-0.4 -1.6,-1.4 l 0.2,-1.3 q -0.3,-0.2 -0.8,0.1 -0.5,0.3 -0.7,0.3 -3.8,-2.3 -3.8,-7.6 0,-0.2 0.3,-0.7 0.4,-0.5 0.4,-0.6 0,-0.2 -0.3,-0.4 -0.5,0.3 -1.5,0.4 -0.5,-1.3 -0.9,-3.3 l 0.5,-0.6 q -0.8,-0.4 -1.4,-2 -0.6,-1.7 -1.2,-2.1 0,-0.3 0.2,-0.7 0.2,-0.5 0.2,-0.8 0,-0.2 -0.5,-0.4 -0.5,0.2 -1.1,0.6 -0.6,0.3 -1.3,0 -2.8,-1.8 -6.1,-1.8 -1.1,0 -2.3,0.3 v 2.8 q -0.1,0.1 -0.7,0.4 -0.2,-0.2 -0.6,0.5 l -0.3,0.8 q 1.1,0.4 1.4,0.7 0.2,0.2 0.2,1.4 0,5 0.7,5.4 0.1,0 0.2,-0.1 0.3,0.4 1.4,0.4 0.4,-0.2 1.1,-1 0.7,-0.8 1.3,-0.7 0.4,0 0.9,0.6 v 0.4 q -2.3,3.3 -2.5,3.5 -1.6,2.4 -1.7,3.8 -0.6,0 -1.2,1.9 -0.1,0.1 -0.9,1.5 -0.6,1 -1.1,0.8 -1.9,-1.5 -1.9,-2.3 0,-0.6 0.4,-1.1 0,-0.1 -0.7,-0.3 -0.5,-0.1 -0.6,0.1 l -0.6,0.5 q -1.3,-0.9 -3,-2.8 0.5,-0.9 0.5,-1.1 l -0.8,-1.2 q -0.8,2 -1.6,1.6 -0.4,-0.4 -0.9,-0.4 -0.5,0 -1.5,0.3 -1.1,0.2 -1.5,0.2 -0.5,0 -0.8,-0.1 0.1,-0.4 -0.4,-0.8 -0.5,-0.4 -0.8,-0.4 -0.7,0 -0.7,2 -1.8,0.4 -3,4 -0.3,0.6 0,2.1 0.3,0.9 0.9,2.1 0.3,-0.6 1.3,-2.1 0.4,-0.3 2.3,-0.9 0.5,0.5 1.7,1.4 0.1,0.6 -0.4,1.4 -0.2,0 -0.5,-0.4 -0.1,-0.5 -0.5,-0.5 l -0.9,0.2 -0.6,1.3 q -0.5,0.5 -0.5,1.2 0,0.2 0.1,0.6 0.1,0.4 0.1,0.5 0,0.4 -0.5,0.4 -0.4,0 -1.1,-0.1 -4.6,-3.4 -4,-7.6 0.2,0 0.8,-0.4 0.6,-0.5 0.6,-0.7 0,-0.1 -0.1,-0.3 l -1.1,-0.6 q 0.4,-2 2,-4.4 1.6,-2.4 3.2,-3.3 1.1,-0.8 4,-1.4 0.6,0.1 1,-0.1 0.5,-0.4 0.7,-0.4 0,-2.6 0.1,-3.1 0.2,-0.9 1.3,-1.3 0.1,-0.4 -0.6,-0.5 -0.6,-0.2 -0.6,-0.7 l -0.2,-4.8 q -0.2,0.2 -2.1,0.2 -1.5,0 -2,1 1.5,0.4 2.1,1.6 -0.5,1.6 -1.6,1.6 -0.9,0 -2.7,-2 0.5,-3 4.6,-4.4 z m 13.3,-0.6 4.8,-0.3 q 5.1,-0.3 7.1,-3.9 0.6,0 1.5,-0.7 -1,-1.3 -1,-1.6 0.8,-2.1 -0.3,-4.5 -0.9,-0.4 -0.9,-1.3 0,-2.7 0.2,-2.1 -0.7,-0.4 -1,-0.2 -0.8,0.3 -1.7,-0.4 -0.1,-0.7 -1,-2 -0.8,-1.3 -0.8,-2.1 0,-0.6 0.2,-0.9 -0.2,0.2 -0.4,0.2 -0.2,-0.1 -0.4,-0.1 0,0 -0.1,0.1 -0.7,-0.6 -0.8,-1 -0.5,-1.4 -2.7,-1.4 -1.9,0 -2.7,1.1 0,2.5 -0.4,7.6 -0.6,0.9 -1.9,0.4 l 1.9,1.6 v 4.6 q -0.3,1.5 -1.9,2.3 1.8,0.2 1.9,2.4 0.2,2.1 0.4,2.2 z"
       style="filter:url(#filter223)" />
  </g>
  <metadata
     id="metadata1">
    <rdf:RDF>
      <cc:Work
         rdf:about="">
        <dc:title>d20</dc:title>
      </cc:Work>
    </rdf:RDF>
  </metadata>
</svg>
