<?xml version="1.0" encoding="UTF-8" standalone="no"?>
<!-- Created with Inkscape (http://www.inkscape.org/) -->

<svg
   width="500px"
   height="500px"
   viewBox="0 0 500 500"
   version="1.1"
   id="SVGRoot"
   xmlns="http://www.w3.org/2000/svg"
   xmlns:svg="http://www.w3.org/2000/svg">
  <defs
     id="defs3918" />
  <g
     id="layer1">
    <path
       id="Circle"
       class="s0"
       d="M 250,500 C 111.72529,500 2e-6,388.27471 2e-6,250 2e-6,111.72529 111.72529,-3.8e-7 250,-3.8e-7 388.27467,-3.8e-7 500,111.72529 500,250 500,388.27471 388.27467,500 250,500 Z"
       style="display:inline;fill:#0d1117;fill-opacity:1;stroke-width:0.83752" />
    <g
       id="g10518"
       style="display:inline"
       transform="matrix(0.84137327,0,0,0.84137327,-0.37589512,7.9415312)">
      <path
         id="Star - L"
         class="s1"
         d="m 173.5,217 25.2,71.1 80.3,0.3 -64.8,44.3 24.5,71.3 -65.2,-43.7 -65.2,43.7 24.5,-71.3 -64.8,-44.3 80.3,-0.3 z"
         style="display:inline;fill:#ffffff" />
      <path
         id="Star - R"
         class="s1"
         d="m 433.5,217 25.2,71.1 80.3,0.3 -64.8,44.3 24.5,71.3 -65.2,-43.7 -65.2,43.7 24.5,-71.3 -64.8,-44.3 80.3,-0.3 z"
         style="display:inline;fill:#ffffff" />
      <path
         id="&quot;Eyebrow&quot;"
         class="s2"
         d="m 299,171.5 c 22.7,0.2 31.3,0.7 42.5,2.5 7.7,1.1 20.1,3.5 27.5,5.1 7.4,1.7 20.7,5.5 29.5,8.4 8.8,2.9 20.5,7.1 26,9.5 5.5,2.3 17,7.8 25.5,12.1 8.5,4.3 20.2,10.9 26,14.5 5.8,3.6 15.6,10.2 21.9,14.7 6.3,4.5 17.1,12.9 24,18.7 6.9,5.8 19.4,17.4 27.8,25.8 8.4,8.3 15.3,15.6 15.3,16.2 0,0.6 -0.3,1 -0.8,1 -0.4,0 -3.6,-2.5 -7.2,-5.6 -3.6,-3.1 -12.1,-10.2 -19,-15.7 -6.9,-5.6 -18.8,-14.7 -26.5,-20.2 -7.7,-5.5 -20.5,-14 -28.5,-18.9 -8,-4.9 -20.4,-12 -27.5,-15.7 -7.1,-3.7 -18.6,-9.2 -25.5,-12.2 -6.9,-3 -18.4,-7.5 -25.5,-10 -7.1,-2.5 -19.5,-6.1 -27.5,-8.1 -8,-2 -20.4,-4.5 -27.5,-5.6 -7.1,-1.1 -20.2,-2.4 -29,-2.9 -10.2,-0.6 -21.7,-0.7 -31.8,0 -8.6,0.5 -19,1.4 -22.9,1.9 -4,0.6 -11.1,1.7 -15.8,2.6 -4.7,0.8 -13.9,2.9 -20.5,4.5 -6.6,1.7 -16.7,4.6 -22.5,6.6 -5.8,1.9 -16.1,5.7 -23,8.5 -6.9,2.8 -20.8,9.3 -31,14.4 -10.2,5.2 -25.5,13.7 -34,19 -8.5,5.2 -21.6,13.9 -29,19.2 -7.4,5.3 -17.9,13.2 -33,25.2 l 3.4,7.7 c 1.8,4.3 9.5,21.7 17,38.8 7.5,17.1 13.6,31.3 13.6,31.8 0,0.4 -0.4,0.6 -1,0.4 -0.5,-0.1 -14.4,-19 -31,-42 C 29.6,282.8 29,282 30.7,279.9 c 1,-1.2 6.8,-6.3 12.8,-11.3 6,-5.1 15.5,-12.6 21,-16.8 5.5,-4.1 15.8,-11.3 23,-16 7.2,-4.7 17.5,-11.2 23,-14.3 5.5,-3.2 14.4,-7.9 19.8,-10.6 5.3,-2.7 15.9,-7.5 23.4,-10.8 7.6,-3.2 19.9,-7.9 27.3,-10.4 7.4,-2.5 19.8,-6.2 27.5,-8.1 7.7,-2 19.4,-4.5 26,-5.7 6.6,-1.1 17.4,-2.7 24,-3.4 8.3,-1 20.8,-1.3 40.5,-1 z"
         style="display:inline;opacity:0.9;fill:#ff0000" />
    </g>
    <path
       id="path10500"
       class="s1"
       d="m 250,164.15771 27.98744,78.96456 89.1822,0.33319 -71.9677,49.20014 27.21001,79.18669 L 250,323.30851 l -72.41195,48.53378 27.21001,-79.18669 -71.9677,-49.20014 89.1822,-0.33319 z"
       style="display:inline;fill:#ff0000;fill-opacity:1;stroke-width:1.11061" />
  </g>
</svg>
