<?xml version="1.0" encoding="UTF-8" standalone="no"?>
<svg
   width="2184"
   height="2500"
   viewBox="0 0 256 292.571"
   preserveAspectRatio="xMidYMid"
   version="1.1"
   id="svg4586"
   sodipodi:docname="discord.svg"
   inkscape:version="1.2 (dc2aedaf03, 2022-05-15)"
   xmlns:inkscape="http://www.inkscape.org/namespaces/inkscape"
   xmlns:sodipodi="http://sodipodi.sourceforge.net/DTD/sodipodi-0.dtd"
   xmlns="http://www.w3.org/2000/svg"
   xmlns:svg="http://www.w3.org/2000/svg">
  <defs
     id="defs4590" />
  <sodipodi:namedview
     id="namedview4588"
     pagecolor="#ffffff"
     bordercolor="#111111"
     borderopacity="1"
     inkscape:showpageshadow="0"
     inkscape:pageopacity="0"
     inkscape:pagecheckerboard="1"
     inkscape:deskcolor="#d1d1d1"
     showgrid="false"
     inkscape:zoom="0.3148"
     inkscape:cx="206.4803"
     inkscape:cy="1251.5883"
     inkscape:window-width="1920"
     inkscape:window-height="974"
     inkscape:window-x="-9"
     inkscape:window-y="-9"
     inkscape:window-maximized="1"
     inkscape:current-layer="svg4586" />
  <rect
     style="fill:#ffffff;stroke:#000000;stroke-width:0.0624762;stroke-linecap:round;stroke-linejoin:bevel;paint-order:markers fill stroke"
     id="rect285"
     width="191.7608"
     height="153.03629"
     x="36.118053"
     y="56.362717" />
  <path
     d="M226.011 0H29.99C13.459 0 0 13.458 0 30.135v197.778c0 16.677 13.458 30.135 29.989 30.135h165.888l-7.754-27.063 18.725 17.408 17.7 16.384L256 292.571V30.135C256 13.458 242.542 0 226.011 0zm-56.466 191.05s-5.266-6.291-9.655-11.85c19.164-5.413 26.478-17.408 26.478-17.408-5.998 3.95-11.703 6.73-16.823 8.63-7.314 3.073-14.336 5.12-21.211 6.291-14.044 2.633-26.917 1.902-37.888-.146-8.339-1.61-15.507-3.95-21.504-6.29-3.365-1.317-7.022-2.926-10.68-4.974-.438-.293-.877-.439-1.316-.732a2.022 2.022 0 0 1-.585-.438c-2.633-1.463-4.096-2.487-4.096-2.487s7.022 11.703 25.6 17.261c-4.388 5.56-9.801 12.142-9.801 12.142-32.33-1.024-44.617-22.235-44.617-22.235 0-47.104 21.065-85.285 21.065-85.285 21.065-15.799 41.106-15.36 41.106-15.36l1.463 1.756C80.75 77.53 68.608 89.088 68.608 89.088s3.218-1.755 8.63-4.242c15.653-6.876 28.088-8.777 33.208-9.216.877-.147 1.609-.293 2.487-.293a123.776 123.776 0 0 1 29.55-.292c13.896 1.609 28.818 5.705 44.031 14.043 0 0-11.556-10.971-36.425-18.578l2.048-2.34s20.041-.44 41.106 15.36c0 0 21.066 38.18 21.066 85.284 0 0-12.435 21.211-44.764 22.235zm-68.023-68.316c-8.338 0-14.92 7.314-14.92 16.237 0 8.924 6.728 16.238 14.92 16.238 8.339 0 14.921-7.314 14.921-16.238.147-8.923-6.582-16.237-14.92-16.237m53.394 0c-8.339 0-14.922 7.314-14.922 16.237 0 8.924 6.73 16.238 14.922 16.238 8.338 0 14.92-7.314 14.92-16.238 0-8.923-6.582-16.237-14.92-16.237"
     fill="#7289DA"
     id="path4584"
     style="fill:#5865f2;fill-opacity:1" />
</svg>
